<svg width="24" height="24" viewBox="0 0 24 24" fill="none" xmlns="http://www.w3.org/2000/svg">
<path d="M7.5275 11.4707L4.8075 8.7507H14.9975C16.3899 8.7507 17.7252 9.30383 18.7098 10.2884C19.6944 11.273 20.2475 12.6083 20.2475 14.0007C20.2475 15.3931 19.6944 16.7284 18.7098 17.713C17.7252 18.6976 16.3899 19.2507 14.9975 19.2507H11.9975V20.7507H14.9975C16.7877 20.7507 18.5046 20.0395 19.7705 18.7737C21.0363 17.5078 21.7475 15.7909 21.7475 14.0007C21.7475 12.2105 21.0363 10.4936 19.7705 9.22773C18.5046 7.96186 16.7877 7.2507 14.9975 7.2507H4.808L7.5275 4.5307L6.4675 3.4707L1.9375 8.0007L6.4675 12.5307L7.5275 11.4707Z" fill="#2873B9"/>
</svg>
