
<svg width="24" height="24" viewBox="0 0 24 24" fill="none" xmlns="http://www.w3.org/2000/svg">
<path d="M7.5275 11.47L4.8075 8.74997H14.9975C16.3899 8.74997 17.7252 9.30309 18.7098 10.2877C19.6944 11.2722 20.2475 12.6076 20.2475 14C20.2475 15.3924 19.6944 16.7277 18.7098 17.7123C17.7252 18.6968 16.3899 19.25 14.9975 19.25H11.9975V20.75H14.9975C16.7877 20.75 18.5046 20.0388 19.7705 18.7729C21.0363 17.5071 21.7475 15.7902 21.7475 14C21.7475 12.2098 21.0363 10.4929 19.7705 9.227C18.5046 7.96113 16.7877 7.24997 14.9975 7.24997H4.808L7.5275 4.52997L6.4675 3.46997L1.9375 7.99997L6.4675 12.53L7.5275 11.47Z" fill="#2873B9"/>
</svg>
