<svg width="24" height="24" viewBox="0 0 24 24" fill="none" xmlns="http://www.w3.org/2000/svg">
<g clip-path="url(#clip0_967_36023)">
<path d="M21.2631 0L20.809 3.98438H0V4.77431L0.733031 11.2071C0.947719 13.0917 2.66564 14.625 4.56253 14.625H19.5966L19.4364 16.0312H3.45638V17.4375H20.6915L22.5182 1.40625H24V0H21.2631ZM19.7568 13.2188H4.56253C3.37814 13.2188 2.2643 12.2246 2.13019 11.0478L1.48556 5.39062H20.6488L19.7568 13.2188Z" fill="#2873B9"/>
<path d="M18.1875 18.8438C16.7659 18.8438 15.6094 20.0003 15.6094 21.4219C15.6094 22.8435 16.7659 24 18.1875 24C19.6091 24 20.7656 22.8435 20.7656 21.4219C20.7656 20.0003 19.6091 18.8438 18.1875 18.8438ZM18.1875 22.5938C17.5413 22.5938 17.0156 22.068 17.0156 21.4219C17.0156 20.7757 17.5413 20.25 18.1875 20.25C18.8337 20.25 19.3594 20.7757 19.3594 21.4219C19.3594 22.068 18.8337 22.5938 18.1875 22.5938Z" fill="#2873B9"/>
<path d="M5.32812 18.8438C3.90655 18.8438 2.75 20.0003 2.75 21.4219C2.75 22.8435 3.90655 24 5.32812 24C6.7497 24 7.90625 22.8435 7.90625 21.4219C7.90625 20.0003 6.7497 18.8438 5.32812 18.8438ZM5.32812 22.5938C4.68195 22.5938 4.15625 22.068 4.15625 21.4219C4.15625 20.7757 4.68195 20.25 5.32812 20.25C5.9743 20.25 6.5 20.7757 6.5 21.4219C6.5 22.068 5.9743 22.5938 5.32812 22.5938Z" fill="#2873B9"/>
<path d="M11.7734 6.77246H10.3672V11.835H11.7734V6.77246Z" fill="#2873B9"/>
<path d="M16.6953 6.77246H15.2891V11.835H16.6953V6.77246Z" fill="#2873B9"/>
<path d="M6.85156 6.77246H5.44531V11.835H6.85156V6.77246Z" fill="#2873B9"/>
</g>
<defs>
<clipPath id="clip0_967_36023">
<rect width="24" height="24" fill="white"/>
</clipPath>
</defs>
</svg>
