<svg width="24" height="25" viewBox="0 0 24 25" fill="none" xmlns="http://www.w3.org/2000/svg">
<g clip-path="url(#clip0_3001_47062)">
<path d="M21.2631 0.5L20.809 4.48438H0V5.27431L0.733031 11.7071C0.947719 13.5917 2.66564 15.125 4.56253 15.125H19.5966L19.4364 16.5312H3.45638V17.9375H20.6915L22.5182 1.90625H24V0.5H21.2631ZM19.7568 13.7188H4.56253C3.37814 13.7188 2.2643 12.7246 2.13019 11.5478L1.48556 5.89062H20.6488L19.7568 13.7188Z" fill="#2873B9"/>
<path d="M18.1875 19.3438C16.7659 19.3438 15.6094 20.5003 15.6094 21.9219C15.6094 23.3435 16.7659 24.5 18.1875 24.5C19.6091 24.5 20.7656 23.3435 20.7656 21.9219C20.7656 20.5003 19.6091 19.3438 18.1875 19.3438ZM18.1875 23.0938C17.5413 23.0938 17.0156 22.568 17.0156 21.9219C17.0156 21.2757 17.5413 20.75 18.1875 20.75C18.8337 20.75 19.3594 21.2757 19.3594 21.9219C19.3594 22.568 18.8337 23.0938 18.1875 23.0938Z" fill="#2873B9"/>
<path d="M5.32812 19.3438C3.90655 19.3438 2.75 20.5003 2.75 21.9219C2.75 23.3435 3.90655 24.5 5.32812 24.5C6.7497 24.5 7.90625 23.3435 7.90625 21.9219C7.90625 20.5003 6.7497 19.3438 5.32812 19.3438ZM5.32812 23.0938C4.68195 23.0938 4.15625 22.568 4.15625 21.9219C4.15625 21.2757 4.68195 20.75 5.32812 20.75C5.9743 20.75 6.5 21.2757 6.5 21.9219C6.5 22.568 5.9743 23.0938 5.32812 23.0938Z" fill="#2873B9"/>
<path d="M11.7734 7.27234H10.3672V12.3348H11.7734V7.27234Z" fill="#2873B9"/>
<path d="M16.6953 7.27234H15.2891V12.3348H16.6953V7.27234Z" fill="#2873B9"/>
<path d="M6.85156 7.27234H5.44531V12.3348H6.85156V7.27234Z" fill="#2873B9"/>
</g>
<defs>
</defs>
</svg>
