<svg width="28" height="26" viewBox="0 0 28 26" fill="none" xmlns="http://www.w3.org/2000/svg">
<g clip-path="url(#clip0_1480_53217)">
<path d="M25.2631 2L24.809 5.98438H4V6.77431L4.73303 13.2071C4.94772 15.0917 6.66564 16.625 8.56253 16.625H23.5966L23.4364 18.0312H7.45638V19.4375H24.6915L26.5182 3.40625H28V2H25.2631ZM23.7568 15.2188H8.56253C7.37814 15.2188 6.2643 14.2246 6.13019 13.0478L5.48556 7.39062H24.6488L23.7568 15.2188Z" fill="#2873B9"/>
<path d="M22.1875 20.8438C20.7659 20.8438 19.6094 22.0003 19.6094 23.4219C19.6094 24.8435 20.7659 26 22.1875 26C23.6091 26 24.7656 24.8435 24.7656 23.4219C24.7656 22.0003 23.6091 20.8438 22.1875 20.8438ZM22.1875 24.5938C21.5413 24.5938 21.0156 24.068 21.0156 23.4219C21.0156 22.7757 21.5413 22.25 22.1875 22.25C22.8337 22.25 23.3594 22.7757 23.3594 23.4219C23.3594 24.068 22.8337 24.5938 22.1875 24.5938Z" fill="#2873B9"/>
<path d="M9.32812 20.8438C7.90655 20.8438 6.75 22.0003 6.75 23.4219C6.75 24.8435 7.90655 26 9.32812 26C10.7497 26 11.9062 24.8435 11.9062 23.4219C11.9062 22.0003 10.7497 20.8438 9.32812 20.8438ZM9.32812 24.5938C8.68195 24.5938 8.15625 24.068 8.15625 23.4219C8.15625 22.7757 8.68195 22.25 9.32812 22.25C9.9743 22.25 10.5 22.7757 10.5 23.4219C10.5 24.068 9.9743 24.5938 9.32812 24.5938Z" fill="#2873B9"/>
<path d="M15.7734 8.77246H14.3672V13.835H15.7734V8.77246Z" fill="#2873B9"/>
<path d="M20.6953 8.77246H19.2891V13.835H20.6953V8.77246Z" fill="#2873B9"/>
<path d="M10.8516 8.77246H9.44531V13.835H10.8516V8.77246Z" fill="#2873B9"/>
</g>
<rect x="1" y="1" width="12" height="12" rx="6" fill="#2873B9"/>
<path d="M7.25 6.75H11V7.5H7.25V11H6.5V7.5H3V6.75H6.5V3H7.25V6.75Z" fill="#F5F9FF"/>
<defs>
<clipPath id="clip0_1480_53217">
<rect width="24" height="24" fill="white" transform="translate(4 2)"/>
</clipPath>
</defs>
</svg>
