<svg width="43" height="43" viewBox="0 0 43 43" fill="none" xmlns="http://www.w3.org/2000/svg">
<path d="M43 36.6754V26.222L37.4104 16.4401H27.8235V8.85191H31.6176V6.3225C29.9901 6.3225 18.2043 6.3225 16.8505 6.3225C15.4271 3.33416 12.3775 1.26367 8.85294 1.26367C3.97143 1.26367 0 5.2351 0 10.1166C0 12.5233 0.965645 14.7083 2.52941 16.3056V36.6754H6.32353C6.32353 37.5966 6.57217 38.4602 7.00411 39.2049H0V41.7343H43V39.2049H38.5253C38.9572 38.4602 39.2059 37.5966 39.2059 36.6754H43ZM39.556 25.2931H32.8824V18.9696H35.9425L39.556 25.2931ZM25.2941 8.85191V26.5578H5.05882V18.1142C6.20937 18.6622 7.49591 18.9696 8.85294 18.9696C13.7345 18.9696 17.7059 14.9982 17.7059 10.1166C17.7059 9.6872 17.6745 9.26505 17.6152 8.85191H25.2941ZM8.85294 3.79308C12.3397 3.79308 15.1765 6.62982 15.1765 10.1166C15.1765 13.6034 12.3397 16.4401 8.85294 16.4401C5.36615 16.4401 2.52941 13.6034 2.52941 10.1166C2.52941 6.62982 5.36615 3.79308 8.85294 3.79308ZM8.85294 36.6754C8.85294 35.2807 9.98764 34.146 11.3824 34.146C12.7771 34.146 13.9118 35.2807 13.9118 36.6754C13.9118 38.0702 12.7771 39.2049 11.3824 39.2049C9.98764 39.2049 8.85294 38.0702 8.85294 36.6754ZM16.4412 36.6754H29.0882C29.0882 37.5966 29.3369 38.4602 29.7688 39.2049H15.7606C16.1925 38.4602 16.4412 37.5966 16.4412 36.6754ZM31.6176 36.6754C31.6176 35.2807 32.7523 34.146 34.1471 34.146C35.5418 34.146 36.6765 35.2807 36.6765 36.6754C36.6765 38.0702 35.5418 39.2049 34.1471 39.2049C32.7523 39.2049 31.6176 38.0702 31.6176 36.6754ZM29.7688 34.146H15.7606C13.8103 30.7833 8.96297 30.7687 7.00419 34.146H5.05882V29.0872H27.8235V18.9696H30.3529V27.8225H40.4706V34.146H38.5253C36.575 30.7833 31.7277 30.7687 29.7688 34.146Z" fill="#2873b9"/>
<path d="M11.3791 10.1168H8.84972V7.5874H6.32031V12.6462H11.3791V10.1168Z" fill="#2873b9"/>
<path d="M20.2344 16.4402H22.7638V24.0284H20.2344V16.4402Z" fill="#2873b9"/>
<path d="M15.1797 18.9697H17.7091V24.0286H15.1797V18.9697Z" fill="#2873b9"/>
</svg>
