<svg width="42" height="42" viewBox="0 0 42 42" fill="none" xmlns="http://www.w3.org/2000/svg">
<path d="M42 35.8226V25.6122L36.5404 16.0579H27.1765V8.64614H30.8824V6.17555C29.2926 6.17555 17.781 6.17555 16.4586 6.17555C15.0684 3.25672 12.0897 1.23438 8.64706 1.23438C3.87907 1.23438 0 5.11345 0 9.88143C0 12.2321 0.943188 14.3663 2.47059 15.9265V35.8226H6.17647C6.17647 36.7223 6.41933 37.5659 6.84122 38.2932H0V40.7638H42V38.2932H37.6294C38.0513 37.5659 38.2941 36.7223 38.2941 35.8226H42ZM38.636 24.705H32.1176V18.5285H35.1066L38.636 24.705ZM24.7059 8.64614V25.9403H4.94118V17.693C6.06496 18.2283 7.32159 18.5285 8.64706 18.5285C13.4151 18.5285 17.2941 14.6495 17.2941 9.88143C17.2941 9.46201 17.2635 9.04967 17.2055 8.64614H24.7059ZM8.64706 3.70496C12.0528 3.70496 14.8235 6.47573 14.8235 9.88143C14.8235 13.2871 12.0528 16.0579 8.64706 16.0579C5.24135 16.0579 2.47059 13.2871 2.47059 9.88143C2.47059 6.47573 5.24135 3.70496 8.64706 3.70496ZM8.64706 35.8226C8.64706 34.4603 9.75537 33.352 11.1176 33.352C12.4799 33.352 13.5882 34.4603 13.5882 35.8226C13.5882 37.1849 12.4799 38.2932 11.1176 38.2932C9.75537 38.2932 8.64706 37.1849 8.64706 35.8226ZM16.0588 35.8226H28.4118C28.4118 36.7223 28.6546 37.5659 29.0765 38.2932H15.3941C15.816 37.5659 16.0588 36.7223 16.0588 35.8226ZM30.8824 35.8226C30.8824 34.4603 31.9907 33.352 33.3529 33.352C34.7152 33.352 35.8235 34.4603 35.8235 35.8226C35.8235 37.1849 34.7152 38.2932 33.3529 38.2932C31.9907 38.2932 30.8824 37.1849 30.8824 35.8226ZM29.0765 33.352H15.3941C13.4891 30.0675 8.75453 30.0532 6.84131 33.352H4.94118V28.4108H27.1765V18.5285H29.6471V27.1756H39.5294V33.352H37.6294C35.7244 30.0675 30.9898 30.0532 29.0765 33.352Z" fill="#2873B9"/>
<path d="M11.1209 9.88172H8.65028V7.41113H6.17969V12.3523H11.1209V9.88172Z" fill="#2873B9"/>
<path d="M19.7656 16.0576H22.2362V23.4694H19.7656V16.0576Z" fill="#2873B9"/>
<path d="M14.8203 18.5283H17.2909V23.4695H14.8203V18.5283Z" fill="#2873B9"/>
</svg>
