<svg width="44" height="44" viewBox="0 0 44 44" fill="none" xmlns="http://www.w3.org/2000/svg">
<mask id="mask0_1287_52164" style="mask-type:luminance" maskUnits="userSpaceOnUse" x="0" y="0" width="44" height="44">
<path d="M0 0H44V44H0V0Z" fill="white"/>
</mask>
<g mask="url(#mask0_1287_52164)">
<path d="M27.1563 29.6484C24.3129 29.6484 22 27.3355 22 24.4922C22 21.6489 24.3129 19.3359 27.1563 19.3359C29.9996 19.3359 32.3125 21.6489 32.3125 24.4922C32.3125 27.3355 29.9996 29.6484 27.1563 29.6484Z" stroke="#2873b9" stroke-width="1.875" stroke-miterlimit="10"/>
<path d="M30.1405 28.695L32.3125 37.3828L27.1563 34.8047L22 37.3828L24.172 28.695" stroke="#2873b9" stroke-width="1.875" stroke-miterlimit="10"/>
<path d="M25.8672 24.4922H28.4453" stroke="#2873b9" stroke-width="1.875" stroke-miterlimit="10"/>
<path d="M37.4688 9.02344V42.7109H6.53125V1.28906H29.7344L37.4688 9.02344Z" stroke="#2873b9" stroke-width="1.875" stroke-miterlimit="10"/>
<path d="M37.4688 9.02344H29.7344V1.28906" stroke="#2873b9" stroke-width="1.875" stroke-miterlimit="10"/>
<path d="M10.3984 9.02344H25.8672" stroke="#2873b9" stroke-width="1.875" stroke-miterlimit="10"/>
<path d="M10.3984 14.1797H25.8672" stroke="#2873b9" stroke-width="1.875" stroke-miterlimit="10"/>
<path d="M10.3984 19.3359H18.1328" stroke="#2873b9" stroke-width="1.875" stroke-miterlimit="10"/>
</g>
</svg>
