<svg width="33" height="32" viewBox="0 0 33 32" fill="none" xmlns="http://www.w3.org/2000/svg">
<mask id="mask0_1303_100432" style="mask-type:luminance" maskUnits="userSpaceOnUse" x="0" y="0" width="33" height="32">
<path d="M32.4688 31.9688V0.03125H0.53125V31.9688H32.4688Z" fill="white" stroke="white" stroke-width="0.0625"/>
</mask>
<g mask="url(#mask0_1303_100432)">
<path d="M20.25 21.5625C18.1821 21.5625 16.5 19.8804 16.5 17.8125C16.5 15.7446 18.1821 14.0625 20.25 14.0625C22.3179 14.0625 24 15.7446 24 17.8125C24 19.8804 22.3179 21.5625 20.25 21.5625Z" stroke="#2873B9" stroke-width="1.875" stroke-miterlimit="10"/>
<path d="M22.4204 20.8691L24 27.1875L20.25 25.3125L16.5 27.1875L18.0796 20.8691" stroke="#2873B9" stroke-width="1.875" stroke-miterlimit="10"/>
<path d="M19.3125 17.8125H21.1875" stroke="#2873B9" stroke-width="1.875" stroke-miterlimit="10"/>
<path d="M27.75 6.5625V31.0625H5.25V0.9375H22.125L27.75 6.5625Z" stroke="#2873B9" stroke-width="1.875" stroke-miterlimit="10"/>
<path d="M27.75 6.5625H22.125V0.937499" stroke="#2873B9" stroke-width="1.875" stroke-miterlimit="10"/>
<path d="M8.0625 6.5625H19.3125" stroke="#2873B9" stroke-width="1.875" stroke-miterlimit="10"/>
<path d="M8.0625 10.3125H19.3125" stroke="#2873B9" stroke-width="1.875" stroke-miterlimit="10"/>
<path d="M8.0625 14.0625H13.6875" stroke="#2873B9" stroke-width="1.875" stroke-miterlimit="10"/>
</g>
</svg>
