<svg width="24" height="24" viewBox="0 0 24 24" fill="none" xmlns="http://www.w3.org/2000/svg">
<path d="M21.1165 3.05719C18.7198 0.331965 14.4129 0.317785 12.001 3.02511C9.77884 0.535951 5.87113 0.303652 3.41514 2.53813C0.656531 4.84856 0.179185 9.54864 2.40781 12.4624C2.55517 12.6634 2.7144 12.8578 2.88118 13.04L12.0002 23L21.1194 13.0442C23.628 10.4149 23.6267 5.68471 21.1165 3.05719ZM3.50503 11.6941L6.95833 15.4773L12.0004 21.0011L17.5 14.9969L19.2308 13.1073L12.0004 21.0011L3.50503 11.6941ZM20.4992 11.6941L17.5 14.9969L12.0004 21.0011L6.95833 15.4773L3.50503 11.6941C1.63219 9.37546 1.97599 5.52129 4.2242 3.64145C6.38852 1.69156 9.78009 2.10797 11.4949 4.52114L12.0001 5.21008L12.5055 4.52128C14.3999 1.90836 18.0546 1.68492 20.2014 4.05687C22.0906 6.03667 22.2222 9.55293 20.4992 11.6941Z" fill="#C2342F"/>
</svg>
