<svg width="25" height="25" viewBox="0 0 25 25" fill="none" xmlns="http://www.w3.org/2000/svg">
<path d="M21.6165 3.55719C19.2198 0.831965 14.9129 0.817785 12.501 3.52511C10.2788 1.03595 6.37113 0.803652 3.91514 3.03813C1.15653 5.34856 0.679185 10.0486 2.90781 12.9624C3.05517 13.1634 3.2144 13.3578 3.38118 13.54L12.5002 23.5L21.6194 13.5442C24.128 10.9149 24.1267 6.18471 21.6165 3.55719ZM4.00503 12.1941L7.45833 15.9773L12.5004 21.5011L18 15.4969L19.7308 13.6073L12.5004 21.5011L4.00503 12.1941ZM20.9992 12.1941L18 15.4969L12.5004 21.5011L7.45833 15.9773L4.00503 12.1941C2.13219 9.87546 2.47599 6.02129 4.7242 4.14145C6.88852 2.19156 10.2801 2.60797 11.9949 5.02114L12.5001 5.71008L13.0055 5.02128C14.8999 2.40836 18.5546 2.18492 20.7014 4.55687C22.5906 6.53667 22.7222 10.0529 20.9992 12.1941Z" fill="#2873B9"/>
</svg>
