
<svg width="24" height="24" viewBox="0 0 24 24" fill="none" xmlns="http://www.w3.org/2000/svg">
<path d="M20.3307 11.3751H10.8926C10.7485 10.6694 10.365 10.0351 9.8071 9.57958C9.24916 9.12406 8.551 8.87524 7.83073 8.87524C7.11046 8.87524 6.41229 9.12406 5.85436 9.57958C5.29643 10.0351 4.91298 10.6694 4.7689 11.3751H3.66406C3.4983 11.3751 3.33933 11.441 3.22212 11.5582C3.10491 11.6754 3.03906 11.8343 3.03906 12.0001C3.03906 12.1659 3.10491 12.3248 3.22212 12.442C3.33933 12.5593 3.4983 12.6251 3.66406 12.6251H4.7689C4.91298 13.3308 5.29643 13.9651 5.85436 14.4206C6.41229 14.8762 7.11046 15.125 7.83073 15.125C8.551 15.125 9.24916 14.8762 9.8071 14.4206C10.365 13.9651 10.7485 13.3308 10.8926 12.6251H20.3307C20.4965 12.6251 20.6555 12.5593 20.7727 12.442C20.8899 12.3248 20.9557 12.1659 20.9557 12.0001C20.9557 11.8343 20.8899 11.6754 20.7727 11.5582C20.6555 11.441 20.4965 11.3751 20.3307 11.3751ZM7.83073 13.8751C7.45989 13.8751 7.09738 13.7651 6.78904 13.5591C6.48069 13.3531 6.24037 13.0602 6.09845 12.7176C5.95654 12.375 5.91941 11.998 5.99176 11.6343C6.0641 11.2706 6.24268 10.9365 6.5049 10.6743C6.76713 10.4121 7.10122 10.2335 7.46493 10.1611C7.82865 10.0888 8.20565 10.1259 8.54826 10.2678C8.89087 10.4097 9.18371 10.6501 9.38973 10.9584C9.59576 11.2668 9.70573 11.6293 9.70573 12.0001C9.70511 12.4972 9.50737 12.9737 9.15587 13.3252C8.80438 13.6767 8.32782 13.8745 7.83073 13.8751Z" fill="#26273A"/>
<path d="M20.3307 5.54161H18.3926C18.2485 4.83589 17.865 4.20162 17.3071 3.74609C16.7492 3.29056 16.051 3.04175 15.3307 3.04175C14.6105 3.04175 13.9123 3.29056 13.3544 3.74609C12.7964 4.20162 12.413 4.83589 12.2689 5.54161H3.66406C3.4983 5.54161 3.33933 5.60746 3.22212 5.72467C3.10491 5.84188 3.03906 6.00085 3.03906 6.16661C3.03906 6.33237 3.10491 6.49134 3.22212 6.60855C3.33933 6.72576 3.4983 6.79161 3.66406 6.79161H12.2689C12.413 7.49732 12.7964 8.1316 13.3544 8.58713C13.9123 9.04265 14.6105 9.29147 15.3307 9.29147C16.051 9.29147 16.7492 9.04265 17.3071 8.58713C17.865 8.1316 18.2485 7.49732 18.3926 6.79161H20.3307C20.4965 6.79161 20.6555 6.72576 20.7727 6.60855C20.8899 6.49134 20.9557 6.33237 20.9557 6.16661C20.9557 6.00085 20.8899 5.84188 20.7727 5.72467C20.6555 5.60746 20.4965 5.54161 20.3307 5.54161ZM15.3307 8.04161C14.9599 8.04161 14.5974 7.93164 14.289 7.72561C13.9807 7.51959 13.7404 7.22675 13.5985 6.88414C13.4565 6.54153 13.4194 6.16453 13.4918 5.80081C13.5641 5.4371 13.7427 5.10301 14.0049 4.84078C14.2671 4.57856 14.6012 4.39998 14.9649 4.32763C15.3286 4.25529 15.7056 4.29242 16.0483 4.43433C16.3909 4.57625 16.6837 4.81657 16.8897 5.12491C17.0958 5.43325 17.2057 5.79577 17.2057 6.16661C17.2051 6.6637 17.0074 7.14025 16.6559 7.49175C16.3044 7.84325 15.8278 8.04099 15.3307 8.04161Z" fill="#26273A"/>
<path d="M20.3307 17.2084H18.3926C18.2485 16.5026 17.865 15.8684 17.3071 15.4128C16.7492 14.9573 16.051 14.7085 15.3307 14.7085C14.6105 14.7085 13.9123 14.9573 13.3544 15.4128C12.7964 15.8684 12.413 16.5026 12.2689 17.2084H3.66406C3.4983 17.2084 3.33933 17.2742 3.22212 17.3914C3.10491 17.5086 3.03906 17.6676 3.03906 17.8334C3.03906 17.9991 3.10491 18.1581 3.22212 18.2753C3.33933 18.3925 3.4983 18.4584 3.66406 18.4584H12.2689C12.413 19.1641 12.7964 19.7983 13.3544 20.2539C13.9123 20.7094 14.6105 20.9582 15.3307 20.9582C16.051 20.9582 16.7492 20.7094 17.3071 20.2539C17.865 19.7983 18.2485 19.1641 18.3926 18.4584H20.3307C20.4965 18.4584 20.6555 18.3925 20.7727 18.2753C20.8899 18.1581 20.9557 17.9991 20.9557 17.8334C20.9557 17.6676 20.8899 17.5086 20.7727 17.3914C20.6555 17.2742 20.4965 17.2084 20.3307 17.2084ZM15.3307 19.7084C14.9599 19.7084 14.5974 19.5984 14.289 19.3924C13.9807 19.1863 13.7404 18.8935 13.5985 18.5509C13.4565 18.2083 13.4194 17.8313 13.4918 17.4676C13.5641 17.1038 13.7427 16.7698 14.0049 16.5075C14.2671 16.2453 14.6012 16.0667 14.9649 15.9944C15.3286 15.922 15.7056 15.9592 16.0483 16.1011C16.3909 16.243 16.6837 16.4833 16.8897 16.7917C17.0958 17.1 17.2057 17.4625 17.2057 17.8334C17.2051 18.3304 17.0074 18.807 16.6559 19.1585C16.3044 19.51 15.8278 19.7077 15.3307 19.7084Z" fill="#26273A"/>
</svg>


