<svg width="24" height="24" viewBox="-2 -2 24 24" fill="none" xmlns="http://www.w3.org/2000/svg">
<path d="M18.3307 9.3751H8.89256C8.74848 8.66939 8.36503 8.03511 7.8071 7.57958C7.24916 7.12406 6.551 6.87524 5.83073 6.87524C5.11046 6.87524 4.41229 7.12406 3.85436 7.57958C3.29643 8.03511 2.91298 8.66939 2.7689 9.3751H1.66406C1.4983 9.3751 1.33933 9.44095 1.22212 9.55816C1.10491 9.67537 1.03906 9.83434 1.03906 10.0001C1.03906 10.1659 1.10491 10.3248 1.22212 10.442C1.33933 10.5593 1.4983 10.6251 1.66406 10.6251H2.7689C2.91298 11.3308 3.29643 11.9651 3.85436 12.4206C4.41229 12.8762 5.11046 13.125 5.83073 13.125C6.551 13.125 7.24916 12.8762 7.8071 12.4206C8.36503 11.9651 8.74848 11.3308 8.89256 10.6251H18.3307C18.4965 10.6251 18.6555 10.5593 18.7727 10.442C18.8899 10.3248 18.9557 10.1659 18.9557 10.0001C18.9557 9.83434 18.8899 9.67537 18.7727 9.55816C18.6555 9.44095 18.4965 9.3751 18.3307 9.3751ZM5.83073 11.8751C5.45989 11.8751 5.09738 11.7651 4.78904 11.5591C4.48069 11.3531 4.24037 11.0602 4.09845 10.7176C3.95654 10.375 3.91941 9.99802 3.99176 9.63431C4.0641 9.27059 4.24268 8.9365 4.5049 8.67428C4.76713 8.41205 5.10122 8.23348 5.46493 8.16113C5.82865 8.08878 6.20565 8.12591 6.54826 8.26783C6.89087 8.40974 7.18371 8.65007 7.38973 8.95841C7.59576 9.26675 7.70573 9.62926 7.70573 10.0001C7.70511 10.4972 7.50737 10.9737 7.15587 11.3252C6.80438 11.6767 6.32782 11.8745 5.83073 11.8751Z" fill="#26273A"/>
<path d="M18.3307 3.54161H16.3926C16.2485 2.83589 15.865 2.20162 15.3071 1.74609C14.7492 1.29056 14.051 1.04175 13.3307 1.04175C12.6105 1.04175 11.9123 1.29056 11.3544 1.74609C10.7964 2.20162 10.413 2.83589 10.2689 3.54161H1.66406C1.4983 3.54161 1.33933 3.60746 1.22212 3.72467C1.10491 3.84188 1.03906 4.00085 1.03906 4.16661C1.03906 4.33237 1.10491 4.49134 1.22212 4.60855C1.33933 4.72576 1.4983 4.79161 1.66406 4.79161H10.2689C10.413 5.49732 10.7964 6.1316 11.3544 6.58713C11.9123 7.04265 12.6105 7.29147 13.3307 7.29147C14.051 7.29147 14.7492 7.04265 15.3071 6.58713C15.865 6.1316 16.2485 5.49732 16.3926 4.79161H18.3307C18.4965 4.79161 18.6555 4.72576 18.7727 4.60855C18.8899 4.49134 18.9557 4.33237 18.9557 4.16661C18.9557 4.00085 18.8899 3.84188 18.7727 3.72467C18.6555 3.60746 18.4965 3.54161 18.3307 3.54161ZM13.3307 6.04161C12.9599 6.04161 12.5974 5.93164 12.289 5.72561C11.9807 5.51959 11.7404 5.22675 11.5985 4.88414C11.4565 4.54153 11.4194 4.16453 11.4918 3.80081C11.5641 3.4371 11.7427 3.10301 12.0049 2.84078C12.2671 2.57856 12.6012 2.39998 12.9649 2.32763C13.3286 2.25529 13.7056 2.29242 14.0483 2.43433C14.3909 2.57625 14.6837 2.81657 14.8897 3.12491C15.0958 3.43325 15.2057 3.79577 15.2057 4.16661C15.2051 4.6637 15.0074 5.14025 14.6559 5.49175C14.3044 5.84325 13.8278 6.04099 13.3307 6.04161Z" fill="#26273A"/>
<path d="M18.3307 15.2084H16.3926C16.2485 14.5026 15.865 13.8684 15.3071 13.4128C14.7492 12.9573 14.051 12.7085 13.3307 12.7085C12.6105 12.7085 11.9123 12.9573 11.3544 13.4128C10.7964 13.8684 10.413 14.5026 10.2689 15.2084H1.66406C1.4983 15.2084 1.33933 15.2742 1.22212 15.3914C1.10491 15.5086 1.03906 15.6676 1.03906 15.8334C1.03906 15.9991 1.10491 16.1581 1.22212 16.2753C1.33933 16.3925 1.4983 16.4584 1.66406 16.4584H10.2689C10.413 17.1641 10.7964 17.7983 11.3544 18.2539C11.9123 18.7094 12.6105 18.9582 13.3307 18.9582C14.051 18.9582 14.7492 18.7094 15.3071 18.2539C15.865 17.7983 16.2485 17.1641 16.3926 16.4584H18.3307C18.4965 16.4584 18.6555 16.3925 18.7727 16.2753C18.8899 16.1581 18.9557 15.9991 18.9557 15.8334C18.9557 15.6676 18.8899 15.5086 18.7727 15.3914C18.6555 15.2742 18.4965 15.2084 18.3307 15.2084ZM13.3307 17.7084C12.9599 17.7084 12.5974 17.5984 12.289 17.3924C11.9807 17.1863 11.7404 16.8935 11.5985 16.5509C11.4565 16.2083 11.4194 15.8313 11.4918 15.4676C11.5641 15.1038 11.7427 14.7698 12.0049 14.5075C12.2671 14.2453 12.6012 14.0667 12.9649 13.9944C13.3286 13.922 13.7056 13.9592 14.0483 14.1011C14.3909 14.243 14.6837 14.4833 14.8897 14.7917C15.0958 15.1 15.2057 15.4625 15.2057 15.8334C15.2051 16.3304 15.0074 16.807 14.6559 17.1585C14.3044 17.51 13.8278 17.7077 13.3307 17.7084Z" fill="#26273A"/>
</svg>
