<svg width="43" height="43" viewBox="0 0 43 43" fill="none" xmlns="http://www.w3.org/2000/svg">
<g clip-path="url(#clip0_967_35376)">
<path d="M22.409 15.2839L12.5172 5.39208L1.96094 1.96216L5.39086 12.5184L14.8456 21.9731" stroke="#2873b9" stroke-width="2.51953" stroke-miterlimit="10"/>
<path d="M21.0234 28.1533L33.1346 40.2644C35.1024 42.2323 38.293 42.2324 40.2609 40.2644C42.2287 38.2966 42.2287 35.106 40.2609 33.1381L27.7126 20.5898" stroke="#2873b9" stroke-width="2.51953" stroke-miterlimit="10"/>
<path d="M5.39062 12.5184C6.71556 11.1935 7.53013 9.55175 7.83558 7.83704C9.5502 7.53159 11.192 6.71703 12.517 5.39209" stroke="#2873b9" stroke-width="2.51953" stroke-miterlimit="10"/>
<path d="M26.8438 33.971L33.97 26.8447" stroke="#2873b9" stroke-width="2.51953" stroke-miterlimit="10"/>
<path d="M30.4062 37.5343L37.5326 30.408" stroke="#2873b9" stroke-width="2.51953" stroke-miterlimit="10"/>
<path d="M30.4036 30.408L24.3672 24.3716" stroke="#2873b9" stroke-width="2.51953" stroke-miterlimit="10"/>
<path d="M18.6274 18.6284L7.83594 7.83691" stroke="#2873b9" stroke-width="2.51953" stroke-miterlimit="10"/>
<path d="M14.1489 35.9276L41.1074 5.44601C41.9824 4.45651 41.9471 2.94412 41.0004 1.99745C40.0537 1.05077 38.5413 1.01542 37.5518 1.89045L7.0702 28.8488C6.80532 29.0832 6.54681 29.3245 6.29688 29.5746C3.18349 32.6879 1.25781 36.989 1.25781 41.7399C6.00872 41.7399 10.3098 39.8143 13.4232 36.7009C13.6731 36.4509 13.9146 36.1924 14.1489 35.9276Z" stroke="#2873b9" stroke-width="2.51953" stroke-miterlimit="10"/>
<path d="M22.6959 26.2623L16.7344 20.3008" stroke="#2873b9" stroke-width="2.51953" stroke-miterlimit="10"/>
<path d="M26.0401 22.4805L20.5156 16.9561" stroke="#2873b9" stroke-width="2.51953" stroke-miterlimit="10"/>
<path d="M16.7882 32.9413L10.0547 26.2078" stroke="#2873b9" stroke-width="2.51953" stroke-miterlimit="10"/>
</g>
<defs>
<clipPath id="clip0_967_35376">
<rect width="43" height="43" fill="white"/>
</clipPath>
</defs>
</svg>
