<svg width="43" height="42" viewBox="0 0 43 42" fill="none" xmlns="http://www.w3.org/2000/svg">
<g clip-path="url(#clip0_967_81237)">
<path d="M42.3359 35.8226V25.6122L36.8764 16.0579H27.5124V8.64614H31.2183V6.17555C29.6285 6.17555 18.1169 6.17555 16.7946 6.17555C15.4043 3.25672 12.4256 1.23438 8.983 1.23438C4.21501 1.23438 0.335938 5.11345 0.335938 9.88143C0.335938 12.2321 1.27913 14.3663 2.80653 15.9265V35.8226H6.51241C6.51241 36.7223 6.75527 37.5659 7.17716 38.2932H0.335938V40.7638H42.3359V38.2932H37.9653C38.3872 37.5659 38.6301 36.7223 38.6301 35.8226H42.3359ZM38.972 24.705H32.4536V18.5285H35.4426L38.972 24.705ZM25.0418 8.64614V25.9403H5.27711V17.693C6.4009 18.2283 7.65753 18.5285 8.983 18.5285C13.7511 18.5285 17.6301 14.6495 17.6301 9.88143C17.6301 9.46201 17.5994 9.04967 17.5414 8.64614H25.0418ZM8.983 3.70496C12.3887 3.70496 15.1595 6.47573 15.1595 9.88143C15.1595 13.2871 12.3887 16.0579 8.983 16.0579C5.57729 16.0579 2.80653 13.2871 2.80653 9.88143C2.80653 6.47573 5.57729 3.70496 8.983 3.70496ZM8.983 35.8226C8.983 34.4603 10.0913 33.352 11.4536 33.352C12.8159 33.352 13.9242 34.4603 13.9242 35.8226C13.9242 37.1849 12.8159 38.2932 11.4536 38.2932C10.0913 38.2932 8.983 37.1849 8.983 35.8226ZM16.3948 35.8226H28.7477C28.7477 36.7223 28.9906 37.5659 29.4125 38.2932H15.73C16.1519 37.5659 16.3948 36.7223 16.3948 35.8226ZM31.2183 35.8226C31.2183 34.4603 32.3266 33.352 33.6889 33.352C35.0512 33.352 36.1595 34.4603 36.1595 35.8226C36.1595 37.1849 35.0512 38.2932 33.6889 38.2932C32.3266 38.2932 31.2183 37.1849 31.2183 35.8226ZM29.4125 33.352H15.73C13.825 30.0675 9.09047 30.0532 7.17724 33.352H5.27711V28.4108H27.5124V18.5285H29.983V27.1756H39.8653V33.352H37.9653C36.0603 30.0675 31.3258 30.0532 29.4125 33.352Z" fill="#2873B9"/>
<path d="M11.4568 9.88148H8.98621V7.41089H6.51562V12.3521H11.4568V9.88148Z" fill="#2873B9"/>
<path d="M20.1016 16.0579H22.5722V23.4696H20.1016V16.0579Z" fill="#2873B9"/>
<path d="M15.1562 18.5286H17.6268V23.4697H15.1562V18.5286Z" fill="#2873B9"/>
</g>
<defs>
<clipPath id="clip0_967_81237">
<rect width="42" height="42" fill="white" transform="translate(0.335938)"/>
</clipPath>
</defs>
</svg>
