<svg width="42" height="42" viewBox="0 0 42 42" fill="none" xmlns="http://www.w3.org/2000/svg">
<path d="M39.3336 22.5955H41.982C41.982 22.5955 42 21.1722 42 21.1111C42 8.74132 31.8281 0 21 0C8.61328 0 0 10.1432 0 21.1111C0 21.1722 0.0180469 22.5955 0.0180469 22.5955H2.66643C2.75838 24.0013 3.00645 25.3801 3.41029 26.7188H3.22178H0V29.1927H2.63033L2.50999 29.7038C2.50999 29.7038 4.85527 30.4831 5.47977 30.7378C5.50864 31.6167 5.60848 34.155 5.60848 34.155C5.60848 34.155 7.996 34.4764 8.70491 34.6053C8.93427 35.3394 9.81512 38.0453 9.81512 38.0453C9.81512 38.0453 12.2479 37.7905 12.9719 37.7259C13.5277 38.5638 15.1746 40.939 15.1746 40.939C15.1746 40.939 17.4793 39.8274 18.0674 39.5529C18.8021 40.1584 21.1379 42 21.1379 42C21.1379 42 22.8683 40.134 23.34 39.6618C24.1192 39.9855 26.7555 41.0342 26.7555 41.0342C26.7555 41.0342 27.8291 38.7663 28.1519 38.1795C28.9583 38.2656 31.5637 38.5233 31.5637 38.5233C31.5637 38.5233 32.1246 36.1516 32.3252 35.48C33.0531 35.3564 35.7518 34.8727 35.7518 34.8727C35.7518 34.8727 35.8291 32.4533 35.8733 31.7081C36.7746 31.2756 39.257 30.0264 39.257 30.0264L39.031 29.1926H42V26.7187H38.5897C38.9936 25.3801 39.2416 24.0013 39.3336 22.5955ZM2.625 20.1215H2.4867C2.99996 10.303 11.1076 2.47396 21 2.47396C30.8924 2.47396 39 10.3031 39.5133 20.1215H39.375H34.5918C34.0855 13.0281 28.1828 7.41198 21 7.41198C13.8172 7.41198 7.91454 13.0281 7.40824 20.1215H2.625ZM33.5138 30.0938C33.5138 30.0938 33.3809 32.154 33.3539 32.7922C32.5418 32.9352 30.4361 33.2892 30.4361 33.2892C30.4361 33.2892 29.8234 35.2444 29.6642 35.8502C29.0043 35.7829 26.8272 35.5469 26.8272 35.5469C26.8272 35.5469 25.8063 37.3229 25.5211 37.8842C24.8594 37.6167 22.7934 36.7506 22.7934 36.7506C22.7934 36.7506 21.3239 38.1849 20.8757 38.6535C20.2705 38.1694 18.4474 36.6573 18.4474 36.6573C18.4474 36.6573 16.6303 37.4952 15.9931 37.7994C15.5518 37.1547 14.2197 35.1376 14.2197 35.1376C14.2197 35.1376 12.1857 35.312 11.532 35.3769C11.2644 34.5451 10.6162 32.4574 10.6162 32.4574C10.6162 32.4574 8.60557 32.0718 7.985 31.9764C7.96154 31.3373 7.89288 29.1928 7.89288 29.1928H35.3989C35.0078 29.3826 33.5138 30.0938 33.5138 30.0938ZM35.9994 26.7188H6.00059C5.52981 25.3889 5.23925 24.0088 5.13245 22.5955H9.86139L9.83686 21.3344C9.83538 21.2601 9.83399 21.1858 9.83399 21.1111C9.83399 14.9216 14.8431 9.88602 21 9.88602C27.1569 9.88602 32.166 14.9216 32.166 21.1111C32.166 21.1858 32.1646 21.2601 32.1631 21.3344L32.1386 22.5955H36.8676C36.7607 24.0088 36.4702 25.389 35.9994 26.7188Z" fill="#2873B9"/>
</svg>
