<svg width="43" height="43" viewBox="0 0 43 43" fill="none" xmlns="http://www.w3.org/2000/svg">
<g clip-path="url(#clip0_967_81267)">
<path d="M10.5391 20.2646V37.5588H32.7744C32.7744 36.5977 32.7744 20.9114 32.7744 20.2646C30.9765 20.2646 13.7202 20.2646 10.5391 20.2646ZM22.892 22.7352H25.3626V25.2058H22.892V22.7352ZM25.3626 30.147H22.892V27.6764H25.3626V30.147ZM17.9508 27.6764H20.4214V30.147H17.9508V27.6764ZM17.9508 22.7352H20.4214V25.2058H17.9508V22.7352ZM13.0097 22.7352H15.4802V25.2058H13.0097V22.7352ZM13.0097 27.6764H15.4802V30.147H13.0097V27.6764ZM15.4802 35.0882H13.0097V32.6176H15.4802V35.0882ZM20.4214 35.0882H17.9508V32.6176H20.4214V35.0882ZM25.3626 35.0882H22.892V32.6176H25.3626V35.0882ZM30.3038 35.0882H27.8332C27.8332 34.3056 27.8332 28.4458 27.8332 27.6764H30.3038V35.0882ZM30.3038 22.7352V25.2058H27.8332V22.7352H30.3038Z" fill="#2873B9"/>
<path d="M33.1898 0.5H10.131C7.63346 0.5 5.60156 2.53189 5.60156 5.02941V37.9706C5.60156 40.4681 7.63346 42.5 10.131 42.5H33.1898C35.6873 42.5 37.7192 40.4681 37.7192 37.9706V5.02941C37.7192 2.53189 35.6873 0.5 33.1898 0.5ZM35.2486 37.9706C35.2486 39.1058 34.325 40.0294 33.1898 40.0294H10.131C8.99574 40.0294 8.07215 39.1058 8.07215 37.9706V5.02941C8.07215 3.89418 8.99574 2.97059 10.131 2.97059H33.1898C34.325 2.97059 35.2486 3.89418 35.2486 5.02941V37.9706Z" fill="#2873B9"/>
<path d="M10.5391 12.8529H32.7744V5.44116H10.5391V12.8529ZM13.0097 7.91175H30.3038V10.3823H13.0097V7.91175Z" fill="#2873B9"/>
<path d="M10.5391 15.3235H13.0097V17.7941H10.5391V15.3235Z" fill="#2873B9"/>
<path d="M15.4844 15.3235H17.955V17.7941H15.4844V15.3235Z" fill="#2873B9"/>
<path d="M20.4219 15.3235H22.8925V17.7941H20.4219V15.3235Z" fill="#2873B9"/>
<path d="M25.3672 15.3235H32.779V17.7941H25.3672V15.3235Z" fill="#2873B9"/>
</g>
<defs>
<clipPath id="clip0_967_81267">
<rect width="42" height="42" fill="white" transform="translate(0.664062 0.5)"/>
</clipPath>
</defs>
</svg>
