<svg width="24" height="24" viewBox="0 0 24 24" fill="none" xmlns="http://www.w3.org/2000/svg">
<path d="M16.9688 0H7.03125C3.14813 0 0 3.14813 0 7.03125V16.9688C0 20.8519 3.14813 24 7.03125 24H16.9688C20.8519 24 24 20.8519 24 16.9688V7.03125C24 3.14813 20.8519 0 16.9688 0ZM12 18.787C11.3527 18.787 10.8281 18.2625 10.8281 17.6152V10.1152C10.8281 9.46781 11.3527 8.94328 12 8.94328C12.6473 8.94328 13.1719 9.46781 13.1719 10.1152V17.6152C13.1719 18.2625 12.6473 18.787 12 18.787ZM12.8287 7.21359C12.3712 7.67109 11.6292 7.67109 11.1713 7.21359C10.7137 6.75609 10.7137 6.01406 11.1713 5.55609C11.6288 5.09812 12.3708 5.09859 12.8287 5.55609C13.2867 6.01359 13.2863 6.75562 12.8287 7.21359Z" fill="#2873B9"/>
</svg>
