<svg width="40" height="40" viewBox="0 0 40 40" fill="none" xmlns="http://www.w3.org/2000/svg">
<path d="M9.40625 18.8235V35.2941H30.5827C30.5827 34.3788 30.5827 19.4395 30.5827 18.8235C28.8705 18.8235 12.4359 18.8235 9.40625 18.8235ZM21.171 21.1764H23.5239V23.5294H21.171V21.1764ZM23.5239 28.2353H21.171V25.8823H23.5239V28.2353ZM16.4651 25.8823H18.818V28.2353H16.4651V25.8823ZM16.4651 21.1764H18.818V23.5294H16.4651V21.1764ZM11.7592 21.1764H14.1121V23.5294H11.7592V21.1764ZM11.7592 25.8823H14.1121V28.2353H11.7592V25.8823ZM14.1121 32.9411H11.7592V30.5882H14.1121V32.9411ZM18.818 32.9411H16.4651V30.5882H18.818V32.9411ZM23.5239 32.9411H21.171V30.5882H23.5239V32.9411ZM28.2298 32.9411H25.8768C25.8768 32.1958 25.8768 26.615 25.8768 25.8823H28.2298V32.9411ZM28.2298 21.1764V23.5294H25.8768V21.1764H28.2298Z" fill="#2873b9"/>
<path d="M30.9776 0H9.01685C6.63826 0 4.70312 1.93514 4.70312 4.31373V35.6863C4.70312 38.0649 6.63826 40 9.01685 40H30.9776C33.3562 40 35.2914 38.0649 35.2914 35.6863V4.31373C35.2914 1.93514 33.3562 0 30.9776 0ZM32.9384 35.6863C32.9384 36.7675 32.0588 37.6471 30.9776 37.6471H9.01685C7.93567 37.6471 7.05607 36.7675 7.05607 35.6863V4.31373C7.05607 3.23255 7.93567 2.35294 9.01685 2.35294H30.9776C32.0588 2.35294 32.9384 3.23255 32.9384 4.31373V35.6863Z" fill="#2873b9"/>
<path d="M9.40625 11.7646H30.5827V4.70581H9.40625V11.7646ZM11.7592 7.05875H28.2298V9.41169H11.7592V7.05875Z" fill="#2873b9"/>
<path d="M9.40625 14.1177H11.7592V16.4706H9.40625V14.1177Z" fill="#2873b9"/>
<path d="M14.1172 14.1177H16.4701V16.4706H14.1172V14.1177Z" fill="#2873b9"/>
<path d="M18.8203 14.1177H21.1733V16.4706H18.8203V14.1177Z" fill="#2873b9"/>
<path d="M23.5234 14.1177H30.5823V16.4706H23.5234V14.1177Z" fill="#2873b9"/>
</svg>
