<svg width="43" height="43" viewBox="0 0 43 43" fill="none" xmlns="http://www.w3.org/2000/svg">
<g clip-path="url(#clip0_967_81229)">
<path d="M21.3359 3.00439L0.335938 11.2756V39.997H42.3359V11.2756L21.3359 3.00439ZM28.3496 37.5085H22.5972V31.756H28.3496V37.5085ZM24.2121 29.2952H18.4597V23.5427H24.2121V29.2952ZM20.0747 31.7561V37.5085H14.3223V31.7561H20.0747ZM33.3022 37.5085H30.8105V29.2952H26.6731V21.0818H15.9988V29.2952H11.8613V37.5085H9.36963V18.4786H33.3022V37.5085ZM39.875 37.5361H35.7632V16.0177H6.90869V37.5361H2.79688V12.9513L21.3359 5.64933L39.875 12.9513V37.5361Z" fill="#2873B9"/>
</g>
<defs>
<clipPath id="clip0_967_81229">
<rect width="42" height="42" fill="white" transform="translate(0.335938 0.5)"/>
</clipPath>
</defs>
</svg>
