<svg width="43" height="43" viewBox="0 0 43 43" fill="none" xmlns="http://www.w3.org/2000/svg">
<g clip-path="url(#clip0_967_35454)">
<path d="M21.5 20.1855C20.5738 20.1855 19.8203 20.9391 19.8203 21.8652C19.8203 22.7914 20.5738 23.5449 21.5 23.5449C22.4262 23.5449 23.1797 22.7914 23.1797 21.8652C23.1797 20.9391 22.4262 20.1855 21.5 20.1855Z" fill="#2873b9"/>
<path d="M40.2701 23.125H42.9815C42.9815 23.125 43 21.6755 43 21.6133C43 9.01562 32.5859 0.113281 21.5 0.113281C8.81836 0.113281 0 10.4434 0 21.6133C0 21.6755 0.0184766 23.125 0.0184766 23.125H2.72991C2.82406 24.5567 3.07803 25.9609 3.49148 27.3242H3.29849H0V29.8438H2.69296L2.56975 30.3643C2.56975 30.3643 4.97087 31.1579 5.61024 31.4173C5.6398 32.3124 5.74201 34.8974 5.74201 34.8974C5.74201 34.8974 8.18638 35.2247 8.91217 35.3561C9.14699 36.1037 10.0488 38.8594 10.0488 38.8594C10.0488 38.8594 12.5395 38.5999 13.2808 38.5341C13.8498 39.3874 15.5359 41.8064 15.5359 41.8064C15.5359 41.8064 17.8955 40.6744 18.4976 40.3948C19.2497 41.0114 21.6412 42.8869 21.6412 42.8869C21.6412 42.8869 23.4128 40.9865 23.8957 40.5057C24.6935 40.8353 27.3925 41.9033 27.3925 41.9033C27.3925 41.9033 28.4917 39.5937 28.8222 38.996C29.6477 39.0838 32.3152 39.3462 32.3152 39.3462C32.3152 39.3462 32.8895 36.9309 33.0949 36.2468C33.8401 36.121 36.6031 35.6283 36.6031 35.6283C36.6031 35.6283 36.6822 33.1644 36.7275 32.4054C37.6502 31.965 40.1917 30.6928 40.1917 30.6928L39.9604 29.8437H43V27.3241H39.5085C39.922 25.9609 40.1759 24.5567 40.2701 23.125ZM2.6875 20.6055H2.5459C3.07139 10.606 11.3721 2.63281 21.5 2.63281C31.6279 2.63281 39.9286 10.6061 40.4541 20.6055H40.3125H35.4154C34.897 13.3814 28.8538 7.6618 21.5 7.6618C14.1462 7.6618 8.10298 13.3814 7.58463 20.6055H2.6875ZM34.3117 30.7614C34.3117 30.7614 34.1757 32.8595 34.148 33.5095C33.3166 33.6552 31.1608 34.0157 31.1608 34.0157C31.1608 34.0157 30.5334 36.0069 30.3705 36.6239C29.6949 36.5554 27.4659 36.315 27.4659 36.315C27.4659 36.315 26.4207 38.1237 26.1287 38.6954C25.4513 38.4229 23.3362 37.5408 23.3362 37.5408C23.3362 37.5408 21.8317 39.0016 21.3728 39.4788C20.7531 38.9858 18.8867 37.4458 18.8867 37.4458C18.8867 37.4458 17.0262 38.2991 16.3739 38.6089C15.9221 37.9524 14.5583 35.8982 14.5583 35.8982C14.5583 35.8982 12.4758 36.0757 11.8065 36.1418C11.5326 35.2948 10.8689 33.1686 10.8689 33.1686C10.8689 33.1686 8.81046 32.7758 8.17512 32.6787C8.1511 32.0278 8.08081 29.8438 8.08081 29.8438H36.2418C35.8413 30.0371 34.3117 30.7614 34.3117 30.7614ZM36.8565 27.3242H6.14346C5.66147 25.9699 5.364 24.5643 5.25465 23.125H10.0962L10.0711 21.8406C10.0696 21.765 10.0681 21.6893 10.0681 21.6133C10.0681 15.3097 15.1965 10.1814 21.5 10.1814C27.8035 10.1814 32.9319 15.3097 32.9319 21.6133C32.9319 21.6893 32.9304 21.765 32.9289 21.8406L32.9038 23.125H37.7453C37.636 24.5643 37.3385 25.97 36.8565 27.3242Z" fill="#2873b9"/>
</g>
<defs>
<clipPath id="clip0_967_35454">
<rect width="43" height="43" fill="white"/>
</clipPath>
</defs>
</svg>
