<svg width="80" height="80" viewBox="0 0 80 80" fill="none" xmlns="http://www.w3.org/2000/svg">
<path d="M74.4 40C77.4928 40 80.0402 42.5193 79.6087 45.5819C78.7729 51.512 76.6124 57.2038 73.2588 62.2228C68.8635 68.8008 62.6164 73.9277 55.3073 76.9552C47.9983 79.9827 39.9556 80.7748 32.1964 79.2314C24.4371 77.688 17.3098 73.8784 11.7157 68.2843C6.12163 62.6902 2.312 55.5629 0.768589 47.8036C-0.77482 40.0444 0.0173134 32.0017 3.04482 24.6927C6.07232 17.3836 11.1992 11.1365 17.7772 6.74122C22.7962 3.38762 28.488 1.22707 34.4181 0.391351C37.4807 -0.0402453 40 2.5072 40 5.6C40 8.69279 37.4696 11.1451 34.4351 11.7427C30.7241 12.4736 27.1748 13.932 23.9996 16.0537C19.2634 19.2183 15.5721 23.7162 13.3923 28.9787C11.2125 34.2412 10.6421 40.0319 11.7534 45.6186C12.8646 51.2053 15.6076 56.3369 19.6353 60.3647C23.6631 64.3924 28.7947 67.1354 34.3814 68.2466C39.9681 69.3579 45.7588 68.7875 51.0213 66.6077C56.2838 64.4279 60.7817 60.7366 63.9463 56.0004C66.068 52.8252 67.5264 49.2759 68.2573 45.5649C68.8549 42.5304 71.3072 40 74.4 40Z" fill="#2873B9"/>
</svg>
