<svg width="24" height="24" viewBox="0 0 24 24" fill="none" xmlns="http://www.w3.org/2000/svg">
<path d="M12 4.5C11.11 4.5 10.24 4.76392 9.49994 5.25839C8.75991 5.75285 8.18314 6.45566 7.84254 7.27792C7.50195 8.10019 7.41283 9.00499 7.58647 9.87791C7.7601 10.7508 8.18869 11.5526 8.81802 12.182C9.44736 12.8113 10.2492 13.2399 11.1221 13.4135C11.995 13.5872 12.8998 13.4981 13.7221 13.1575C14.5443 12.8169 15.2471 12.2401 15.7416 11.5001C16.2361 10.76 16.5 9.89002 16.5 9C16.4987 7.80693 16.0242 6.6631 15.1805 5.81947C14.3369 4.97584 13.1931 4.50131 12 4.5ZM12 12C11.4067 12 10.8266 11.8241 10.3333 11.4944C9.83994 11.1648 9.45543 10.6962 9.22836 10.1481C9.0013 9.59987 8.94189 8.99667 9.05765 8.41473C9.1734 7.83279 9.45912 7.29824 9.87868 6.87868C10.2982 6.45912 10.8328 6.1734 11.4147 6.05764C11.9967 5.94189 12.5999 6.0013 13.1481 6.22836C13.6962 6.45542 14.1648 6.83994 14.4944 7.33329C14.8241 7.82664 15 8.40666 15 9C14.9992 9.79541 14.6829 10.558 14.1205 11.1205C13.558 11.6829 12.7954 11.9992 12 12Z" fill="#F5F9FF"/>
<path d="M12 0.75C9.81273 0.752481 7.71575 1.62247 6.16911 3.16911C4.62247 4.71575 3.75248 6.81273 3.75 9C3.75 14.1525 6.87 17.7166 9.6225 20.8616C10.2589 21.5891 10.86 22.2759 11.4139 22.9691C11.4852 23.0555 11.5747 23.1251 11.676 23.1729C11.7773 23.2207 11.8879 23.2455 11.9999 23.2455C12.1119 23.2455 12.2225 23.2207 12.3238 23.1729C12.4251 23.1251 12.5146 23.0555 12.5858 22.9691C13.1395 22.2762 13.7408 21.5891 14.3773 20.8616C17.13 17.7166 20.25 14.1525 20.25 9C20.2475 6.81273 19.3775 4.71575 17.8309 3.16911C16.2843 1.62247 14.1873 0.752481 12 0.75ZM13.2488 19.8735C12.8167 20.3679 12.3999 20.8433 12 21.3186C11.6001 20.8433 11.1833 20.3679 10.7513 19.8735C8.04638 16.7834 5.25 13.5887 5.25 9C5.25 7.20979 5.96116 5.4929 7.22703 4.22703C8.4929 2.96116 10.2098 2.25 12 2.25C13.7902 2.25 15.5071 2.96116 16.773 4.22703C18.0388 5.4929 18.75 7.20979 18.75 9C18.75 13.5887 15.9536 16.7834 13.2488 19.8735Z" fill="#F5F9FF"/>
</svg>
