<svg width="24" height="25" viewBox="0 0 24 25" fill="none" xmlns="http://www.w3.org/2000/svg">
<g clip-path="url(#clip0_3001_47046)">
<path d="M12 0.5C8.51067 0.5 5.67188 3.3388 5.67188 6.82812C5.67188 10.3175 8.51067 13.1562 12 13.1562C15.4893 13.1562 18.3281 10.3175 18.3281 6.82812C18.3281 3.3388 15.4893 0.5 12 0.5ZM12 11.75C9.28608 11.75 7.07812 9.54205 7.07812 6.82812C7.07812 4.1142 9.28608 1.90625 12 1.90625C14.7139 1.90625 16.9219 4.1142 16.9219 6.82812C16.9219 9.54205 14.7139 11.75 12 11.75Z" fill="#2873B9"/>
<path d="M13.9609 14.6094H10.039C6.79519 14.6094 3.59386 16.1071 1.45312 19.3183V24.5H22.5469V19.3183C20.4092 16.1117 17.2088 14.6094 13.9609 14.6094ZM21.1407 23.0938H21.1406H2.85938V19.7486C4.50145 17.407 7.16963 16.0156 10.0391 16.0156H13.961C16.8304 16.0156 19.4985 17.407 21.1407 19.7486V23.0938Z" fill="#2873B9"/>
</g>
<defs>
</defs>
</svg>
