<svg width="24" height="24" viewBox="0 0 24 24" fill="none" xmlns="http://www.w3.org/2000/svg">
<path d="M12 0C8.51067 0 5.67188 2.8388 5.67188 6.32812C5.67188 9.81745 8.51067 12.6562 12 12.6562C15.4893 12.6562 18.3281 9.81745 18.3281 6.32812C18.3281 2.8388 15.4893 0 12 0ZM12 11.25C9.28608 11.25 7.07812 9.04205 7.07812 6.32812C7.07812 3.6142 9.28608 1.40625 12 1.40625C14.7139 1.40625 16.9219 3.6142 16.9219 6.32812C16.9219 9.04205 14.7139 11.25 12 11.25Z" fill="#2873b9"/>
<path d="M13.9609 14.1094H10.039C6.79519 14.1094 3.59386 15.6071 1.45312 18.8183V24H22.5469V18.8183C20.4092 15.6117 17.2088 14.1094 13.9609 14.1094ZM21.1407 22.5938H21.1406H2.85938V19.2486C4.50145 16.907 7.16963 15.5156 10.0391 15.5156H13.961C16.8304 15.5156 19.4985 16.907 21.1407 19.2486V22.5938Z" fill="#2873b9"/>
</svg>
