<svg width="24" height="25" viewBox="0 0 24 25" fill="none" xmlns="http://www.w3.org/2000/svg">
<path d="M22.8339 8.82875C22.7457 8.78468 22.6498 8.75842 22.5515 8.75146C22.4532 8.74449 22.3545 8.75697 22.261 8.78818C22.1675 8.81938 22.0811 8.8687 22.0067 8.93331C21.9323 8.99793 21.8714 9.07657 21.8274 9.16475L21.4141 9.98975C21.2254 9.26718 20.9528 8.56918 20.6019 7.91C19.7575 6.36154 18.5148 5.06676 17.0022 4.15958C15.4897 3.2524 13.7623 2.76577 11.9986 2.75C10.0854 2.74865 8.21414 3.31019 6.6178 4.36468C5.02146 5.41917 3.77063 6.92001 3.02111 8.68025C2.98245 8.77086 2.96202 8.8682 2.96098 8.96671C2.95994 9.06522 2.97831 9.16297 3.01505 9.25438C3.05179 9.34578 3.10617 9.42906 3.17509 9.49945C3.24401 9.56984 3.32612 9.62597 3.41673 9.66463C3.59973 9.7427 3.80625 9.74488 3.99086 9.67068C4.17546 9.59649 4.32304 9.452 4.40111 9.269C5.01008 7.84142 6.00913 6.6144 7.28365 5.72871C8.55816 4.84301 10.0565 4.33451 11.6069 4.26154C13.1572 4.18856 14.6967 4.55407 16.0488 5.31613C17.4008 6.07819 18.5107 7.20593 19.2511 8.57C19.5696 9.15531 19.8145 9.77779 19.9801 10.4233L19.2766 9.71975C19.1352 9.58313 18.9457 9.50754 18.7491 9.50925C18.5524 9.51096 18.3643 9.58983 18.2252 9.72889C18.0862 9.86794 18.0073 10.0561 18.0056 10.2527C18.0039 10.4493 18.0795 10.6388 18.2161 10.7803L20.4661 13.0303C20.5518 13.1105 20.6547 13.17 20.767 13.2043C20.8793 13.2385 20.9979 13.2466 21.1138 13.2278C21.2297 13.2091 21.3397 13.164 21.4355 13.0961C21.5312 13.0281 21.6101 12.9392 21.6661 12.836L23.1661 9.836C23.2556 9.65837 23.2709 9.45246 23.2086 9.26357C23.1463 9.07467 23.0115 8.91827 22.8339 8.82875Z" fill="#2873b9"/>
<path d="M2.81368 11.7862C2.70978 11.8087 2.61235 11.8545 2.52869 11.9201C2.44504 11.9857 2.37734 12.0694 2.33068 12.1649L0.830678 15.1649C0.786025 15.2532 0.759294 15.3495 0.752025 15.4482C0.744757 15.5469 0.757095 15.6461 0.788329 15.74C0.819563 15.8339 0.869074 15.9207 0.93401 15.9954C0.998945 16.0701 1.07802 16.1312 1.16668 16.1751C1.34615 16.2612 1.55213 16.2739 1.7408 16.2104C1.92947 16.147 2.08594 16.0124 2.17693 15.8354L2.59018 15.0104C2.77751 15.7329 3.04886 16.4309 3.39868 17.0902C4.12064 18.4068 5.13055 19.5434 6.35307 20.4153C7.5756 21.2872 8.97919 21.8719 10.4592 22.1257C10.9692 22.2091 11.4851 22.2507 12.0019 22.2502C13.9151 22.2515 15.7864 21.69 17.3827 20.6355C18.9791 19.581 20.2299 18.0801 20.9794 16.3199C21.0575 16.1369 21.0597 15.9304 20.9855 15.7458C20.9113 15.5612 20.7668 15.4136 20.5838 15.3355C20.4008 15.2575 20.1943 15.2553 20.0097 15.3295C19.8251 15.4037 19.6775 15.5482 19.5994 15.7312C18.9262 17.3179 17.7728 18.6539 16.3014 19.5516C14.8299 20.4493 13.1142 20.8636 11.3953 20.7363C9.67631 20.6089 8.0404 19.9464 6.71727 18.8417C5.39415 17.7369 4.45027 16.2455 4.01818 14.5769L4.72168 15.2804C4.79086 15.352 4.87362 15.4092 4.96512 15.4485C5.05663 15.4878 5.15504 15.5085 5.25463 15.5093C5.35421 15.5102 5.45297 15.4912 5.54514 15.4535C5.63732 15.4158 5.72105 15.3601 5.79147 15.2897C5.86189 15.2193 5.91758 15.1355 5.95529 15.0434C5.993 14.9512 6.01198 14.8524 6.01112 14.7528C6.01025 14.6533 5.98956 14.5548 5.95025 14.4633C5.91095 14.3718 5.85381 14.2891 5.78218 14.2199L3.53218 11.9699C3.43479 11.8858 3.31922 11.8254 3.19454 11.7935C3.06987 11.7616 2.93949 11.7591 2.81368 11.7862Z" fill="#2873b9"/>
</svg>
