<svg width="24" height="24" viewBox="0 0 24 24" fill="none" xmlns="http://www.w3.org/2000/svg">
<path d="M22.8339 8.32875C22.7457 8.28468 22.6498 8.25842 22.5515 8.25146C22.4532 8.24449 22.3545 8.25697 22.261 8.28818C22.1675 8.31938 22.0811 8.3687 22.0067 8.43331C21.9323 8.49793 21.8714 8.57657 21.8274 8.66475L21.4141 9.48975C21.2254 8.76718 20.9528 8.06918 20.6019 7.41C19.7575 5.86154 18.5148 4.56676 17.0022 3.65958C15.4897 2.7524 13.7623 2.26577 11.9986 2.25C10.0854 2.24865 8.21414 2.81019 6.6178 3.86468C5.02146 4.91917 3.77063 6.42001 3.02111 8.18025C2.98245 8.27086 2.96202 8.3682 2.96098 8.46671C2.95994 8.56522 2.97831 8.66297 3.01505 8.75438C3.05179 8.84578 3.10617 8.92906 3.17509 8.99945C3.24401 9.06984 3.32612 9.12597 3.41673 9.16463C3.59973 9.2427 3.80625 9.24488 3.99086 9.17068C4.17546 9.09649 4.32304 8.952 4.40111 8.769C5.01008 7.34142 6.00913 6.1144 7.28365 5.22871C8.55816 4.34301 10.0565 3.83451 11.6069 3.76154C13.1572 3.68856 14.6967 4.05407 16.0488 4.81613C17.4008 5.57819 18.5107 6.70593 19.2511 8.07C19.5696 8.65531 19.8145 9.27779 19.9801 9.92325L19.2766 9.21975C19.1352 9.08313 18.9457 9.00754 18.7491 9.00925C18.5524 9.01096 18.3643 9.08983 18.2252 9.22889C18.0862 9.36794 18.0073 9.55605 18.0056 9.7527C18.0039 9.94935 18.0795 10.1388 18.2161 10.2803L20.4661 12.5303C20.5518 12.6105 20.6547 12.67 20.767 12.7043C20.8793 12.7385 20.9979 12.7466 21.1138 12.7278C21.2297 12.7091 21.3397 12.664 21.4355 12.5961C21.5312 12.5281 21.6101 12.4392 21.6661 12.336L23.1661 9.336C23.2556 9.15837 23.2709 8.95246 23.2086 8.76357C23.1463 8.57467 23.0115 8.41827 22.8339 8.32875Z" fill="#2873b9"/>
<path d="M2.81368 11.2859C2.70978 11.3084 2.61235 11.3542 2.52869 11.4198C2.44504 11.4854 2.37734 11.5691 2.33068 11.6647L0.830678 14.6647C0.786025 14.753 0.759294 14.8493 0.752025 14.948C0.744757 15.0467 0.757095 15.1458 0.788329 15.2397C0.819563 15.3337 0.869074 15.4205 0.93401 15.4951C0.998945 15.5698 1.07802 15.6309 1.16668 15.6749C1.34615 15.761 1.55213 15.7737 1.7408 15.7102C1.92947 15.6468 2.08594 15.5122 2.17693 15.3352L2.59018 14.5102C2.77751 15.2326 3.04886 15.9306 3.39868 16.5899C4.12064 17.9065 5.13055 19.0432 6.35307 19.9151C7.5756 20.787 8.97919 21.3716 10.4592 21.6254C10.9692 21.7089 11.4851 21.7505 12.0019 21.7499C13.9151 21.7513 15.7864 21.1897 17.3827 20.1352C18.9791 19.0807 20.2299 17.5799 20.9794 15.8197C21.0575 15.6367 21.0597 15.4301 20.9855 15.2455C20.9113 15.0609 20.7668 14.9134 20.5838 14.8353C20.4008 14.7572 20.1943 14.755 20.0097 14.8292C19.8251 14.9034 19.6775 15.0479 19.5994 15.2309C18.9262 16.8177 17.7728 18.1537 16.3014 19.0514C14.8299 19.9491 13.1142 20.3634 11.3953 20.236C9.67631 20.1087 8.0404 19.4461 6.71727 18.3414C5.39415 17.2367 4.45027 15.7453 4.01818 14.0767L4.72168 14.7802C4.79086 14.8518 4.87362 14.9089 4.96512 14.9482C5.05663 14.9875 5.15504 15.0082 5.25463 15.0091C5.35421 15.01 5.45297 14.991 5.54514 14.9533C5.63732 14.9156 5.72105 14.8599 5.79147 14.7895C5.86189 14.719 5.91758 14.6353 5.95529 14.5431C5.993 14.4509 6.01198 14.3522 6.01112 14.2526C6.01025 14.153 5.98956 14.0546 5.95025 13.9631C5.91095 13.8716 5.85381 13.7888 5.78218 13.7197L3.53218 11.4697C3.43479 11.3855 3.31922 11.3252 3.19454 11.2933C3.06987 11.2614 2.93949 11.2589 2.81368 11.2859Z" fill="#2873b9"/>
</svg>
