<svg width="24" height="24" viewBox="0 0 24 24" fill="none" xmlns="http://www.w3.org/2000/svg">
<g clip-path="url(#clip0_1456_101266)">
<path d="M22.2375 3.5625L20.4375 1.755C19.9093 1.23016 19.1946 0.93617 18.45 0.937505H3.75C3.00408 0.937505 2.28871 1.23382 1.76126 1.76127C1.23382 2.28871 0.9375 3.00408 0.9375 3.75V20.25C0.9375 20.9959 1.23382 21.7113 1.76126 22.2387C2.28871 22.7662 3.00408 23.0625 3.75 23.0625H20.25C20.9959 23.0625 21.7113 22.7662 22.2387 22.2387C22.7662 21.7113 23.0625 20.9959 23.0625 20.25V5.55C23.0642 5.18048 22.9922 4.81432 22.8505 4.47303C22.7088 4.13173 22.5004 3.82217 22.2375 3.5625ZM17.4975 2.0625V5.91C17.4975 6.35756 17.3197 6.78678 17.0032 7.10325C16.6868 7.41971 16.2576 7.5975 15.81 7.5975H8.19C7.74245 7.5975 7.31322 7.41971 6.99676 7.10325C6.68029 6.78678 6.5025 6.35756 6.5025 5.91V2.0625H17.4975ZM6.5025 21.9375V15.6075C6.5025 15.16 6.68029 14.7307 6.99676 14.4143C7.31322 14.0978 7.74245 13.92 8.19 13.92H15.81C16.2576 13.92 16.6868 14.0978 17.0032 14.4143C17.3197 14.7307 17.4975 15.16 17.4975 15.6075V21.9375H6.5025ZM21.9375 20.25C21.9375 20.6976 21.7597 21.1268 21.4432 21.4432C21.1268 21.7597 20.6976 21.9375 20.25 21.9375H18.6225V15.6075C18.6205 14.8622 18.3236 14.148 17.7966 13.621C17.2695 13.0939 16.5553 12.797 15.81 12.795H8.19C7.44469 12.797 6.73047 13.0939 6.20345 13.621C5.67643 14.148 5.37948 14.8622 5.3775 15.6075V21.9375H3.75C3.30245 21.9375 2.87322 21.7597 2.55676 21.4432C2.24029 21.1268 2.0625 20.6976 2.0625 20.25V3.75C2.0625 3.30245 2.24029 2.87323 2.55676 2.55676C2.87322 2.24029 3.30245 2.0625 3.75 2.0625H5.3775V5.91C5.37948 6.65532 5.67643 7.36954 6.20345 7.89656C6.73047 8.42357 7.44469 8.72052 8.19 8.7225H15.81C16.5553 8.72052 17.2695 8.42357 17.7966 7.89656C18.3236 7.36954 18.6205 6.65532 18.6225 5.91V2.0775C19.0072 2.11138 19.3679 2.2785 19.6425 2.55L21.4425 4.3575C21.6006 4.51305 21.7259 4.69874 21.8109 4.90357C21.8959 5.10841 21.939 5.32823 21.9375 5.55V20.25Z" fill="#2873b9"/>
<path d="M15.5644 16.3799H8.48438C8.33519 16.3799 8.19212 16.4391 8.08663 16.5446C7.98114 16.6501 7.92188 16.7932 7.92188 16.9424C7.92188 17.0916 7.98114 17.2346 8.08663 17.3401C8.19212 17.4456 8.33519 17.5049 8.48438 17.5049H15.5644C15.7136 17.5049 15.8566 17.4456 15.9621 17.3401C16.0676 17.2346 16.1269 17.0916 16.1269 16.9424C16.1269 16.7932 16.0676 16.6501 15.9621 16.5446C15.8566 16.4391 15.7136 16.3799 15.5644 16.3799Z" fill="#2873b9"/>
<path d="M15.5644 18.9375H8.48438C8.33519 18.9375 8.19212 18.9968 8.08663 19.1023C7.98114 19.2077 7.92188 19.3508 7.92188 19.5C7.92188 19.6492 7.98114 19.7923 8.08663 19.8977C8.19212 20.0032 8.33519 20.0625 8.48438 20.0625H15.5644C15.7136 20.0625 15.8566 20.0032 15.9621 19.8977C16.0676 19.7923 16.1269 19.6492 16.1269 19.5C16.1269 19.3508 16.0676 19.2077 15.9621 19.1023C15.8566 18.9968 15.7136 18.9375 15.5644 18.9375Z" fill="#2873b9"/>
</g>
<defs>
<clipPath id="clip0_1456_101266">
<rect width="24" height="24" fill="white"/>
</clipPath>
</defs>
</svg>
