<svg width="36" height="36" viewBox="0 0 36 36" fill="none" xmlns="http://www.w3.org/2000/svg">
<circle cx="18" cy="18" r="18" fill="#2873B9"/>
<g clip-path="url(#clip0_3001_52496)">
<path d="M18.0067 12.8652C15.1708 12.8652 12.875 15.1636 12.875 17.9969C12.875 20.8327 15.1733 23.1286 18.0067 23.1286C20.8425 23.1286 23.1383 20.8302 23.1383 17.9969C23.1383 15.1611 20.84 12.8652 18.0067 12.8652ZM18.0067 21.3277C16.1658 21.3277 14.6758 19.8369 14.6758 17.9969C14.6758 16.1569 16.1667 14.6661 18.0067 14.6661C19.8467 14.6661 21.3375 16.1569 21.3375 17.9969C21.3383 19.8369 19.8475 21.3277 18.0067 21.3277Z" fill="#FEFFFF"/>
<path d="M22.1235 8.0638C20.2835 7.97797 15.726 7.98213 13.8844 8.0638C12.266 8.13963 10.8385 8.53047 9.68769 9.6813C7.76436 11.6046 8.01019 14.1963 8.01019 17.9971C8.01019 21.8871 7.79352 24.4188 9.68769 26.313C11.6185 28.243 14.2477 27.9905 18.0035 27.9905C21.8569 27.9905 23.1869 27.993 24.5494 27.4655C26.4019 26.7463 27.8002 25.0905 27.9369 22.1163C28.0235 20.2755 28.0185 15.7188 27.9369 13.8771C27.7719 10.3663 25.8877 8.23713 22.1235 8.0638ZM25.036 25.0405C23.7752 26.3013 22.026 26.1888 17.9794 26.1888C13.8127 26.1888 12.1419 26.2505 10.9227 25.028C9.51852 23.6305 9.77269 21.3863 9.77269 17.9838C9.77269 13.3796 9.30019 10.0638 13.921 9.82713C14.9827 9.78963 15.2952 9.77713 17.9677 9.77713L18.0052 9.80213C22.446 9.80213 25.9302 9.33713 26.1394 13.9571C26.1869 15.0113 26.1977 15.328 26.1977 17.9963C26.1969 22.1146 26.2752 23.7955 25.036 25.0405Z" fill="#FEFFFF"/>
<path d="M23.3398 13.8612C24.0021 13.8612 24.539 13.3243 24.539 12.6621C24.539 11.9998 24.0021 11.4629 23.3398 11.4629C22.6775 11.4629 22.1406 11.9998 22.1406 12.6621C22.1406 13.3243 22.6775 13.8612 23.3398 13.8612Z" fill="#FEFFFF"/>
</g>
<defs>
<clipPath id="clip0_3001_52496">
<rect width="20" height="20" fill="white" transform="translate(8 8)"/>
</clipPath>
</defs>
</svg>
