<svg width="36" height="36" viewBox="0 0 36 36" fill="none" xmlns="http://www.w3.org/2000/svg">
<circle cx="18" cy="18" r="18" fill="#2873B9"/>
<path d="M24.5964 18.8811C24.2731 18.4611 24.3656 18.2743 24.5964 17.8989C24.6006 17.8946 27.2698 14.1009 27.5448 12.8143L27.5465 12.8134C27.6832 12.3446 27.5465 12 26.8857 12H24.6989C24.1422 12 23.8856 12.2957 23.748 12.6266C23.748 12.6266 22.6347 15.3677 21.0596 17.1446C20.5513 17.658 20.3163 17.8226 20.0388 17.8226C19.9021 17.8226 19.6896 17.658 19.6896 17.1891V12.8134C19.6896 12.2511 19.5337 12 19.0729 12H15.6344C15.2853 12 15.0777 12.2623 15.0777 12.5066C15.0777 13.0397 15.8653 13.1623 15.9469 14.6623V17.9169C15.9469 18.63 15.8211 18.7611 15.5419 18.7611C14.7986 18.7611 12.9943 16.0089 11.9251 12.8589C11.7093 12.2477 11.4985 12.0009 10.9376 12.0009H8.75003C8.12584 12.0009 8 12.2966 8 12.6274C8 13.212 8.74336 16.1186 11.4568 19.9586C13.2652 22.5797 15.8119 24 18.1287 24C19.5212 24 19.6912 23.6846 19.6912 23.142C19.6912 20.6374 19.5654 20.4009 20.2629 20.4009C20.5863 20.4009 21.143 20.5654 22.443 21.8297C23.9289 23.3289 24.1731 24 25.0048 24H27.1915C27.8149 24 28.1307 23.6846 27.949 23.0623C27.5332 21.7534 24.7231 19.0611 24.5964 18.8811Z" fill="#FEFFFF"/>
</svg>
