<svg width="36" height="36" viewBox="0 0 36 36" fill="none" xmlns="http://www.w3.org/2000/svg">
<path d="M20.9 18.4378C20.8891 19.008 20.7092 19.5621 20.383 20.0299C20.0569 20.4977 19.5991 20.8582 19.0679 21.0656C18.5366 21.273 17.9558 21.318 17.3989 21.1949C16.842 21.0718 16.3343 20.7861 15.94 20.3741C15.5456 19.9621 15.2825 19.4423 15.184 18.8806C15.0854 18.3188 15.1558 17.7405 15.3863 17.2189C15.6168 16.6972 15.997 16.2557 16.4787 15.9504C16.9604 15.6451 17.5219 15.4897 18.092 15.5038C18.8496 15.5319 19.5665 15.8539 20.0907 16.4016C20.6149 16.9493 20.9052 17.6796 20.9 18.4378Z" fill="white"/>
<path d="M22.9704 9.41992H13.2056C12.2394 9.41992 11.3128 9.80375 10.6295 10.487C9.94633 11.1702 9.5625 12.0968 9.5625 13.063V23.0474C9.5625 23.5258 9.65673 23.9996 9.83982 24.4416C10.0229 24.8836 10.2912 25.2852 10.6295 25.6235C10.9678 25.9618 11.3695 26.2301 11.8115 26.4132C12.2535 26.5963 12.7272 26.6905 13.2056 26.6905H22.9704C23.4488 26.6905 23.9226 26.5963 24.3646 26.4132C24.8066 26.2301 25.2082 25.9618 25.5465 25.6235C25.8848 25.2852 26.1531 24.8836 26.3362 24.4416C26.5193 23.9996 26.6135 23.5258 26.6135 23.0474V13.081C26.6154 12.6012 26.5226 12.1258 26.3404 11.6819C26.1582 11.238 25.8902 10.8345 25.5518 10.4944C25.2134 10.1543 24.8111 9.88429 24.3682 9.69992C23.9252 9.51554 23.4502 9.42039 22.9704 9.41992ZM18.0871 23.321C17.1205 23.3428 16.1692 23.0761 15.3548 22.555C14.5404 22.0338 13.8998 21.2818 13.5146 20.3949C13.1295 19.508 13.0174 18.5265 13.1925 17.5756C13.3677 16.6248 13.8221 15.7476 14.498 15.0562C15.1738 14.3647 16.0404 13.8903 16.987 13.6935C17.9337 13.4967 18.9175 13.5864 19.8129 13.9512C20.7084 14.316 21.4748 14.9393 22.0144 15.7416C22.554 16.5439 22.8424 17.4888 22.8426 18.4557C22.8504 19.0876 22.7336 19.7148 22.4987 20.3015C22.2639 20.8882 21.9156 21.4227 21.4739 21.8747C21.0322 22.3266 20.5057 22.6869 19.9245 22.9351C19.3434 23.1833 18.719 23.3144 18.0871 23.321ZM23.3718 13.5922C23.253 13.5923 23.1354 13.5686 23.0259 13.5226C22.9164 13.4766 22.8172 13.4092 22.734 13.3244C22.6509 13.2396 22.5855 13.139 22.5417 13.0286C22.4979 12.9182 22.4766 12.8002 22.479 12.6814C22.479 12.4399 22.575 12.2082 22.7458 12.0374C22.9166 11.8666 23.1482 11.7707 23.3898 11.7707C23.6313 11.7707 23.863 11.8666 24.0338 12.0374C24.2046 12.2082 24.3006 12.4399 24.3006 12.6814C24.3041 12.81 24.2799 12.9379 24.2295 13.0562C24.179 13.1745 24.1037 13.2806 24.0084 13.3671C23.9132 13.4536 23.8005 13.5185 23.6778 13.5573C23.5552 13.5962 23.4256 13.6081 23.298 13.5922H23.3718Z" fill="#2873B9"/>
<path d="M18.0898 0.000225308C13.316 -0.0236436 8.72828 1.84984 5.33582 5.20854C1.94337 8.56724 0.0240942 13.136 0.000225308 17.9098C-0.0236436 22.6836 1.84984 27.2713 5.20854 30.6638C8.56724 34.0563 13.136 35.9755 17.9098 35.9994C20.2736 36.0112 22.6165 35.5573 24.8048 34.6637C26.9931 33.7701 28.984 32.4541 30.6638 30.7911C32.3436 29.128 33.6793 27.1504 34.5948 24.9711C35.5103 22.7918 35.9876 20.4535 35.9994 18.0898C36.0112 15.7261 35.5573 13.3831 34.6637 11.1948C33.7701 9.00648 32.4541 7.01559 30.7911 5.33582C29.128 3.65605 27.1504 2.32029 24.9711 1.4048C22.7918 0.48932 20.4535 0.012044 18.0898 0.000225308ZM29.021 22.8633C29.026 23.6708 28.8707 24.4713 28.564 25.2183C28.2573 25.9654 27.8054 26.6441 27.2345 27.2152C26.6636 27.7863 25.985 28.2384 25.238 28.5453C24.4911 28.8522 23.6906 29.0077 22.8831 29.003H13.3001C12.4926 29.008 11.6921 28.8526 10.9451 28.546C10.198 28.2393 9.51928 27.7874 8.94818 27.2165C8.37708 26.6456 7.92499 25.967 7.61811 25.22C7.31124 24.4731 7.15568 23.6726 7.16046 22.8651V13.2803C7.15544 12.4728 7.31077 11.6723 7.61742 10.9253C7.92408 10.1782 8.37597 9.49948 8.9469 8.92838C9.51784 8.35728 10.1964 7.90519 10.9434 7.59831C11.6904 7.29144 12.4908 7.13588 13.2983 7.14066H22.8831C23.6905 7.13588 24.4908 7.29138 25.2376 7.59815C25.9844 7.90491 26.663 8.35684 27.2339 8.92775C27.8048 9.49866 28.2567 10.1772 28.5635 10.924C28.8702 11.6709 29.0257 12.4712 29.021 13.2785V22.8633Z" fill="#2873B9"/>
</svg>
