<svg width="36" height="36" viewBox="0 0 36 36" fill="none" xmlns="http://www.w3.org/2000/svg">
<circle cx="18" cy="18" r="18" fill="#2873B9"/>
<g clip-path="url(#clip0_1079_86932)">
<path d="M18.0067 12.865C15.1708 12.865 12.875 15.1633 12.875 17.9967C12.875 20.8325 15.1733 23.1283 18.0067 23.1283C20.8425 23.1283 23.1383 20.83 23.1383 17.9967C23.1383 15.1608 20.84 12.865 18.0067 12.865ZM18.0067 21.3275C16.1658 21.3275 14.6758 19.8367 14.6758 17.9967C14.6758 16.1567 16.1667 14.6658 18.0067 14.6658C19.8467 14.6658 21.3375 16.1567 21.3375 17.9967C21.3383 19.8367 19.8475 21.3275 18.0067 21.3275Z" fill="#FEFFFF"/>
<path d="M22.1235 8.06355C20.2835 7.97772 15.726 7.98189 13.8844 8.06355C12.266 8.13939 10.8385 8.53022 9.68769 9.68105C7.76436 11.6044 8.01019 14.1961 8.01019 17.9969C8.01019 21.8869 7.79352 24.4186 9.68769 26.3127C11.6185 28.2427 14.2477 27.9902 18.0035 27.9902C21.8569 27.9902 23.1869 27.9927 24.5494 27.4652C26.4019 26.7461 27.8002 25.0902 27.9369 22.1161C28.0235 20.2752 28.0185 15.7186 27.9369 13.8769C27.7719 10.3661 25.8877 8.23689 22.1235 8.06355ZM25.036 25.0402C23.7752 26.3011 22.026 26.1886 17.9794 26.1886C13.8127 26.1886 12.1419 26.2502 10.9227 25.0277C9.51852 23.6302 9.77269 21.3861 9.77269 17.9836C9.77269 13.3794 9.30019 10.0636 13.921 9.82689C14.9827 9.78939 15.2952 9.77689 17.9677 9.77689L18.0052 9.80189C22.446 9.80189 25.9302 9.33689 26.1394 13.9569C26.1869 15.0111 26.1977 15.3277 26.1977 17.9961C26.1969 22.1144 26.2752 23.7952 25.036 25.0402Z" fill="#FEFFFF"/>
<path d="M23.3398 13.8617C24.0021 13.8617 24.539 13.3248 24.539 12.6625C24.539 12.0003 24.0021 11.4634 23.3398 11.4634C22.6775 11.4634 22.1406 12.0003 22.1406 12.6625C22.1406 13.3248 22.6775 13.8617 23.3398 13.8617Z" fill="#FEFFFF"/>
</g>
<defs>
<clipPath id="clip0_1079_86932">
<rect width="20" height="20" fill="white" transform="translate(8 8)"/>
</clipPath>
</defs>
</svg>
