<svg width="36" height="36" viewBox="0 0 36 36" fill="none" xmlns="http://www.w3.org/2000/svg">
<path d="M17.9988 0.719727C8.45515 0.719727 0.71875 8.45613 0.71875 17.9997C0.71875 27.5433 8.45515 35.2797 17.9988 35.2797C27.5424 35.2797 35.2788 27.5433 35.2788 17.9997C35.2788 8.45613 27.5424 0.719727 17.9988 0.719727ZM24.6444 20.2155C24.6444 20.2155 26.1726 21.7239 26.5487 22.4241C26.5595 22.4397 26.5661 22.4517 26.5686 22.4601C26.7209 22.7157 26.7588 22.9179 26.682 23.0667C26.556 23.3151 26.124 23.4375 25.9764 23.4483H23.2764C23.0891 23.4483 22.6967 23.3997 22.2215 23.0721C21.8561 22.8165 21.4962 22.3971 21.1452 21.9885C20.6214 21.3801 20.1678 20.8545 19.7106 20.8545C19.6525 20.8543 19.5947 20.8634 19.5396 20.8815C19.194 20.9931 18.7512 21.4863 18.7512 22.8003C18.7512 23.2107 18.4272 23.4465 18.1986 23.4465H16.962C16.5407 23.4465 14.3465 23.2989 12.4025 21.2487C10.0229 18.7377 7.88095 13.7013 7.86295 13.6545C7.72795 13.3287 8.00695 13.1541 8.31115 13.1541H11.0381C11.4017 13.1541 11.5205 13.3755 11.6033 13.5717C11.7005 13.8003 12.0569 14.7093 12.6419 15.7317C13.5905 17.3985 14.172 18.0753 14.6382 18.0753C14.7256 18.0743 14.8114 18.0521 14.8884 18.0105C15.4967 17.6721 15.3833 15.5031 15.3563 15.0531C15.3563 14.9685 15.3545 14.0829 15.0431 13.6581C14.8199 13.3503 14.4401 13.2333 14.2097 13.1901C14.303 13.0614 14.4259 12.9571 14.5679 12.8859C14.9855 12.6771 15.738 12.6465 16.485 12.6465H16.9008C17.7108 12.6573 17.9196 12.7095 18.213 12.7833C18.807 12.9255 18.8195 13.3089 18.7674 14.6211C18.7512 14.9937 18.735 15.4149 18.735 15.9117L18.7296 16.2573C18.7115 16.9251 18.69 17.6829 19.1616 17.9943C19.2224 18.0344 19.2939 18.0551 19.3668 18.0537C19.5306 18.0537 20.0238 18.0537 21.3594 15.7623C21.7697 15.024 22.1276 14.2577 22.4303 13.4691C22.4573 13.4223 22.5366 13.2783 22.6301 13.2225C22.7 13.1894 22.7761 13.1716 22.8533 13.1703H26.0591C26.4083 13.1703 26.6477 13.2225 26.6927 13.3575C26.7719 13.5717 26.6784 14.2251 25.215 16.2069L24.5616 17.0691C23.2349 18.8079 23.235 18.8961 24.6444 20.2155Z" fill="#2873B9"/>
</svg>
