<svg width="40" height="40" viewBox="0 0 40 40" fill="none" xmlns="http://www.w3.org/2000/svg">
<path d="M33.5931 1.43838C33.5931 1.43838 35.4715 8.25168 35.4889 8.31476C30.3745 1.1854 22.912 0.640625 19.9997 0.640625C9.12515 0.640625 0.640625 9.12515 0.640625 19.9997C0.640625 21.9647 0.936185 23.9377 1.52607 25.8411" stroke="#2873B9" stroke-miterlimit="10" stroke-linecap="round" stroke-linejoin="round"/>
<path d="M6.40356 38.561C6.40356 38.561 4.5252 31.7477 4.50781 31.6846C9.62215 38.8139 17.0846 39.3587 19.9969 39.3587C30.8714 39.3587 39.356 30.8742 39.356 19.9996C39.356 18.0346 39.0604 16.0617 38.4705 14.1582" stroke="#2873B9" stroke-miterlimit="10" stroke-linecap="round" stroke-linejoin="round"/>
<path d="M10.1562 10.1562H29.8438" stroke="#2873B9" stroke-width="2" stroke-miterlimit="10" stroke-linecap="round" stroke-linejoin="round"/>
<path d="M26.5625 10.1562V13.4375C26.5625 17.0619 23.6244 20 20 20C16.3756 20 13.4375 17.0619 13.4375 13.4375V10.1562" stroke="#2873B9" stroke-width="2" stroke-miterlimit="10" stroke-linecap="round" stroke-linejoin="round"/>
<path d="M10.1562 29.8438H29.8438" stroke="#2873B9" stroke-width="2" stroke-miterlimit="10" stroke-linecap="round" stroke-linejoin="round"/>
<path d="M26.5625 29.8438V26.5625C26.5625 22.9381 23.6244 20 20 20C16.3756 20 13.4375 22.9381 13.4375 26.5625V29.8438" stroke="#2873B9" stroke-width="2" stroke-miterlimit="10" stroke-linecap="round" stroke-linejoin="round"/>
</svg>
