<svg width="24" height="24" viewBox="0 0 24 24" fill="none" xmlns="http://www.w3.org/2000/svg">
<g clip-path="url(#clip0_1397_48231)">
<path d="M19.7675 1.39336C19.7675 1.39336 20.8408 5.28667 20.8508 5.32272C17.9283 1.2488 13.664 0.9375 11.9999 0.9375C5.7858 0.9375 0.9375 5.7858 0.9375 11.9999C0.9375 13.1227 1.10639 14.2501 1.44347 15.3378" stroke="#2873B9" stroke-width="1.87501" stroke-miterlimit="10" stroke-linecap="round" stroke-linejoin="round"/>
<path d="M4.23172 22.6065C4.23172 22.6065 3.15838 18.7132 3.14844 18.6772C6.07092 22.7511 10.3352 23.0624 11.9993 23.0624C18.2134 23.0624 23.0617 18.2141 23.0617 12C23.0617 10.8772 22.8928 9.7498 22.5557 8.66211" stroke="#2873B9" stroke-width="1.87501" stroke-miterlimit="10" stroke-linecap="round" stroke-linejoin="round"/>
<path d="M6.375 6.375H17.625" stroke="#2873B9" stroke-width="1.87501" stroke-miterlimit="10" stroke-linecap="round" stroke-linejoin="round"/>
<path d="M15.75 6.375V8.25C15.75 10.3211 14.0711 12 12 12C9.92892 12 8.25 10.3211 8.25 8.25V6.375" stroke="#2873B9" stroke-width="1.87501" stroke-miterlimit="10" stroke-linecap="round" stroke-linejoin="round"/>
<path d="M6.375 17.625H17.625" stroke="#2873B9" stroke-width="1.87501" stroke-miterlimit="10" stroke-linecap="round" stroke-linejoin="round"/>
<path d="M15.75 17.625V15.75C15.75 13.6789 14.0711 12 12 12C9.92892 12 8.25 13.6789 8.25 15.75V17.625" stroke="#2873B9" stroke-width="1.87501" stroke-miterlimit="10" stroke-linecap="round" stroke-linejoin="round"/>
</g>
<defs>
<clipPath id="clip0_1397_48231">
<rect width="24" height="24" fill="white"/>
</clipPath>
</defs>
</svg>
