<svg width="24" height="24" viewBox="0 0 24 24" fill="none" xmlns="http://www.w3.org/2000/svg">
<path d="M5.42566 23.2027H18.6095L21.0665 6.82324H2.96875L5.42566 23.2027ZM17.4792 21.8902H6.55595L4.49284 8.13574H19.5423L17.4792 21.8902Z" fill="#2873b9"/>
<path d="M15.6871 5.42855H22.0547V4.11605H15.6871V0.796875H8.34783V4.11605H1.94531V5.42855H15.6871ZM9.66033 2.10937H14.3746V4.11605H9.66033V2.10937Z" fill="#2873b9"/>
<path d="M11.3594 12H12.6719V18.0268H11.3594V12Z" fill="#2873b9"/>
<path d="M14.375 17.9482L15.1281 11.9231L16.4301 12.0859L15.677 18.111L14.375 17.9482Z" fill="#2873b9"/>
<path d="M7.59375 12.0781L8.8957 11.9154L9.64884 17.9405L8.34689 18.1032L7.59375 12.0781Z" fill="#2873b9"/>
</svg>
