<svg width="24" height="24" viewBox="0 0 24 24" fill="none" xmlns="http://www.w3.org/2000/svg">
<path d="M5.42566 23.2032H18.6095L21.0665 6.82373H2.96875L5.42566 23.2032ZM17.4792 21.8907H6.55595L4.49284 8.13623H19.5423L17.4792 21.8907Z" fill="#2873b9"/>
<path d="M15.6871 5.42855H22.0547V4.11605H15.6871V0.796875H8.34783V4.11605H1.94531V5.42855H15.6871ZM9.66033 2.10937H14.3746V4.11605H9.66033V2.10937Z" fill="#2873b9"/>
<path d="M11.3594 12H12.6719V18.0268H11.3594V12Z" fill="#2873b9"/>
<path d="M14.375 17.9485L15.1281 11.9234L16.4301 12.0861L15.677 18.1112L14.375 17.9485Z" fill="#2873b9"/>
<path d="M7.59375 12.0784L8.8957 11.9156L9.64884 17.9407L8.34689 18.1035L7.59375 12.0784Z" fill="#2873b9"/>
</svg>
