<svg width="24" height="24" viewBox="0 0 24 24" fill="none" xmlns="http://www.w3.org/2000/svg">
<path d="M23.25 13.5C23.25 12.4628 22.541 11.5961 21.5848 11.3368C21.6892 11.0776 21.75 10.7961 21.75 10.5C21.75 9.25924 20.7407 8.24996 19.5 8.24996H14.4602C14.8345 6.70749 14.5913 5.11081 13.7747 3.74997C13.3649 3.06718 12.9515 2.30506 12.0081 2.37593C11.4478 2.41036 10.957 2.7502 10.7285 3.26363L8.71143 7.80464C8.59058 8.07491 8.32105 8.24996 8.02515 8.24996H7.5V7.49996H0.75V21.75H18.75C19.9907 21.75 21 20.7407 21 19.5C21 19.2038 20.9393 18.9223 20.8348 18.6631C21.791 18.4038 22.5 17.5371 22.5 16.5C22.5 16.0972 22.3851 15.7242 22.199 15.3968C22.8284 14.9976 23.25 14.299 23.25 13.5ZM6 20.25H2.25V8.99996H6V9.74996V20.25ZM20.25 17.25H15.75V18.75H18.75C19.1638 18.75 19.5 19.0861 19.5 19.5C19.5 19.9138 19.1638 20.25 18.75 20.25H7.5V9.74996H8.02515C8.91284 9.74996 9.71998 9.22555 10.0818 8.41403L12.0989 3.87228L12.4878 4.5212C13.1067 5.55172 13.2869 6.76095 12.9954 7.9277L12.5391 9.74996H19.5C19.9138 9.74996 20.25 10.0861 20.25 10.5C20.25 10.9138 19.9138 11.25 19.5 11.25H15.75V12.75H21C21.4138 12.75 21.75 13.0861 21.75 13.5C21.75 13.9138 21.4138 14.25 21 14.25H15.75V15.75H20.25C20.6638 15.75 21 16.0861 21 16.5C21 16.9138 20.6638 17.25 20.25 17.25Z" fill="#2873B9"/>
</svg>
