<svg width="24" height="24" viewBox="9 9 24 24" fill="none" xmlns="http://www.w3.org/2000/svg">
<path d="M32.25 22.4997C32.25 21.4626 31.541 20.5958 30.5848 20.3365C30.6892 20.0773 30.75 19.7959 30.75 19.4997C30.75 18.259 29.7407 17.2497 28.5 17.2497H23.4602C23.8345 15.7072 23.5913 14.1106 22.7747 12.7497C22.3649 12.0669 21.9515 11.3048 21.0081 11.3757C20.4478 11.4101 19.957 11.75 19.7285 12.2634L17.7114 16.8044C17.5906 17.0747 17.321 17.2497 17.0252 17.2497H16.5V16.4997H9.75V30.7497H27.75C28.9907 30.7497 30 29.7404 30 28.4997C30 28.2036 29.9393 27.9221 29.8348 27.6629C30.791 27.4036 31.5 26.5369 31.5 25.4997C31.5 25.097 31.3851 24.724 31.199 24.3966C31.8284 23.9973 32.25 23.2988 32.25 22.4997ZM15 29.2497H11.25V17.9997H15V18.7497V29.2497ZM29.25 26.2497H24.75V27.7497H27.75C28.1638 27.7497 28.5 28.0859 28.5 28.4997C28.5 28.9135 28.1638 29.2497 27.75 29.2497H16.5V18.7497H17.0252C17.9128 18.7497 18.72 18.2253 19.0818 17.4138L21.0989 12.872L21.4878 13.521C22.1067 14.5515 22.2869 15.7607 21.9954 16.9275L21.5391 18.7497H28.5C28.9138 18.7497 29.25 19.0859 29.25 19.4997C29.25 19.9135 28.9138 20.2497 28.5 20.2497H24.75V21.7497H30C30.4138 21.7497 30.75 22.0859 30.75 22.4997C30.75 22.9135 30.4138 23.2497 30 23.2497H24.75V24.7497H29.25C29.6638 24.7497 30 25.0859 30 25.4997C30 25.9135 29.6638 26.2497 29.25 26.2497Z" fill="#2873B9"/>
</svg>
