<svg width="80" height="65" viewBox="0 0 80 65" fill="none" xmlns="http://www.w3.org/2000/svg">
<path d="M6.05411 61.7267L5.12845 59.4023C5.00859 59.1085 4.885 58.7476 4.75794 58.32C4.67794 58.6485 4.564 59.0094 4.41456 59.4023L3.47818 61.7267H6.05411ZM76.5295 61.7267L75.6039 59.4023C75.4841 59.1085 75.3608 58.7476 75.2334 58.32C75.1538 58.6485 75.0394 59.0094 74.8906 59.4023L73.9536 61.7267H76.5295ZM77.8099 64.8972L76.8186 62.5116H73.6273L72.6467 64.8972H71.7102L74.858 57.3657H75.6363L78.7681 64.8972H77.8099ZM65.8106 61.1981H66.6442C67.4643 61.1981 68.0583 61.0732 68.4249 60.8238C68.7916 60.574 68.9749 60.1737 68.9749 59.6233C68.9749 59.1271 68.8028 58.7576 68.4575 58.515C68.1127 58.272 67.5754 58.1505 66.8455 58.1505H65.8106V61.1981ZM69.9336 59.5822C69.9336 60.3415 69.6587 60.9252 69.1088 61.3342C68.5584 61.7426 67.7713 61.9472 66.7476 61.9472H65.8106V64.8974H64.885V57.3967H66.9493C68.9385 57.3967 69.9336 58.1249 69.9336 59.5822ZM61.916 64.8973H57.4772V57.3964H61.916V58.1708H58.403V60.5875H61.7035V61.3572H58.403V64.1175H61.916V64.8973ZM51.1965 63.112H51.3328C52.0626 63.112 52.63 62.9246 53.035 62.5504C53.4394 62.1754 53.642 61.6551 53.642 60.988C53.642 60.3549 53.4549 59.8592 53.081 59.5001C52.7072 59.141 52.1843 58.961 51.5122 58.961H51.1965V63.112ZM50.2596 58.961H49.9498C49.2882 58.961 48.7683 59.1428 48.3891 59.5047C48.01 59.8675 47.8199 60.3618 47.8199 60.988C47.8199 61.6614 48.0215 62.1841 48.4246 62.5549C48.8276 62.9264 49.3959 63.112 50.1291 63.112H50.2596V58.961ZM50.2596 57.2885H51.1965V58.2119H51.5777C52.1983 58.2119 52.7373 58.3283 53.1925 58.5608C53.6483 58.7938 53.9966 59.1223 54.2381 59.5458C54.48 59.9702 54.6008 60.4545 54.6008 60.9981C54.6008 61.5654 54.465 62.0713 54.1949 62.5139C53.9244 62.957 53.5537 63.2896 53.0839 63.5121C52.6135 63.7342 52.0587 63.8452 51.42 63.8452H51.1965V65H50.2596V63.8452H50.0148C49.3755 63.8452 48.8223 63.7324 48.3538 63.5066C47.8853 63.2809 47.5187 62.9461 47.2534 62.5011C46.9886 62.0566 46.8563 61.5591 46.8563 61.0086C46.8563 60.4677 46.979 59.9853 47.2238 59.5617C47.4688 59.1374 47.8199 58.8061 48.2772 58.5691C48.7349 58.3311 49.2742 58.2119 49.8949 58.2119H50.2596V57.2885ZM42.5419 58.0684C41.6666 58.0684 40.9755 58.3434 40.4698 58.8921C39.963 59.4412 39.7099 60.1923 39.7099 61.1465C39.7099 62.1288 39.9537 62.8871 40.4422 63.4226C40.931 63.9575 41.6269 64.2252 42.5312 64.2252C43.0866 64.2252 43.7203 64.1311 44.4312 63.9429V64.7072C43.8799 64.9022 43.1986 65 42.3896 65C41.2166 65 40.3112 64.6642 39.6744 63.9944C39.0368 63.324 38.7187 62.3713 38.7187 61.1366C38.7187 60.3636 38.8723 59.6866 39.1783 59.105C39.4853 58.5234 39.9286 58.0758 40.5076 57.7604C41.0866 57.4462 41.7685 57.2885 42.5527 57.2885C43.3876 57.2885 44.1175 57.432 44.7421 57.7194L44.3503 58.4685C43.7469 58.2018 43.1441 58.0684 42.5419 58.0684ZM29.8078 61.1364C29.8078 62.1525 30.0378 62.9227 30.4965 63.4481C30.9557 63.9729 31.623 64.2352 32.4984 64.2352C33.3805 64.2352 34.0467 63.9739 34.4967 63.4503C34.9473 62.9273 35.1724 62.1556 35.1724 61.1364C35.1724 60.1278 34.9483 59.3621 34.4998 58.8408C34.0511 58.3191 33.3876 58.0583 32.5089 58.0583C31.6269 58.0583 30.9557 58.3209 30.4965 58.8459C30.0378 59.3708 29.8078 60.1346 29.8078 61.1364ZM36.1523 61.1364C36.1523 62.337 35.8303 63.2808 35.1858 63.9684C34.5414 64.6559 33.6453 64.9998 32.4984 64.9998C31.3253 64.9998 30.4204 64.6623 29.783 63.9867C29.1459 63.311 28.8279 62.3576 28.8279 61.1263C28.8279 59.9053 29.1469 58.9587 29.7861 58.2867C30.4248 57.6146 31.3329 57.2784 32.5089 57.2784C33.653 57.2784 34.5462 57.6206 35.1888 58.3044C35.8314 58.9888 36.1523 59.9326 36.1523 61.1364ZM21.4904 64.8973L18.7892 58.248H18.7456C18.7965 58.7748 18.8218 59.4007 18.8218 60.1261V64.8973H17.9668V57.3964H19.361L21.8827 63.584H21.9259L24.47 57.3964H25.853V64.8973H24.9271V60.0645C24.9271 59.5102 24.9524 58.9081 25.0033 58.2584H24.9597L22.2367 64.8973H21.4904ZM13.0422 64.8973H12.1164V58.1708H9.59535V57.3964H15.5639V58.1708H13.0422V64.8973ZM7.33392 64.8972L6.34265 62.5116H3.1513L2.17075 64.8972H1.23438L4.38215 57.3657H5.16086L8.29218 64.8972H7.33392Z" fill="#2873B9"/>
<path fill-rule="evenodd" clip-rule="evenodd" d="M18.5502 28.2546L31.1621 17.2918L19.1979 0.0677211C13.428 0.0518537 6.73228 0.0677211 0.953549 0.0677211C0.508959 0.0677211 0.240052 0.250841 0.0700989 0.540098C-0.223634 1.04038 0.492508 3.58313 0.622996 4.19771L2.68059 13.8894C3.76592 19.0019 2.79061 17.7985 7.62416 20.9494L18.5502 28.2546Z" fill="url(#paint0_linear_3001_47010)"/>
<path fill-rule="evenodd" clip-rule="evenodd" d="M38.781 28.2646L38.78 10.8047L19.1953 0.0682373L38.781 28.2646Z" fill="url(#paint1_linear_3001_47010)"/>
<path fill-rule="evenodd" clip-rule="evenodd" d="M15.9151 38.6387C15.7174 39.381 15.4518 39.8169 16.0347 40.366L28.3183 49.4582C28.9599 49.7444 29.4021 49.0808 29.767 48.737L38.7829 39.9633L38.7834 28.2644L31.1619 17.2921L18.55 28.2549L15.9151 38.6387Z" fill="url(#paint2_linear_3001_47010)"/>
<path fill-rule="evenodd" clip-rule="evenodd" d="M34.6172 44.0181L38.7816 47.9525L38.784 39.9631L34.6172 44.0181Z" fill="#007EC2"/>
<path d="M45.8467 43.9769L41.4087 39.9623L41.4062 47.9521L45.8467 43.9769Z" fill="#009DBE"/>
<path fill-rule="evenodd" clip-rule="evenodd" d="M78.943 0H78.9356H78.9251C78.8924 0.000322882 78.8736 0.00175225 78.8736 0.00175225L61.6339 0.0528141C61.1983 0.0487089 60.642 0.0465871 60.4198 0.16241L41.4062 10.7892L41.5304 39.8345L51.5404 49.235C51.6282 49.2894 51.726 49.3399 51.7869 49.3396C51.9831 49.3381 52.4048 49.0544 52.4048 49.0544L64.2494 40.119C64.2494 40.119 64.5249 39.9092 64.6066 39.6771C64.6766 39.4757 64.5755 39.1251 64.5755 39.1251L61.6586 28.2271L75.6579 18.5025C75.6579 18.5025 76.2484 18.0599 76.3868 17.8552C76.547 17.6187 76.7198 16.8343 76.7198 16.8343L79.9784 1.07723C79.9784 1.07723 80.0976 0.677591 79.7772 0.333537C79.4993 0.0350088 79.1013 0.00101477 78.943 0Z" fill="url(#paint3_linear_3001_47010)"/>
<path fill-rule="evenodd" clip-rule="evenodd" d="M41.4106 10.7919L41.4062 28.1487L60.4374 0.154785L41.4106 10.7919Z" fill="url(#paint4_linear_3001_47010)"/>
<defs>
<linearGradient id="paint0_linear_3001_47010" x1="1.72042" y1="20.5829" x2="28.6831" y2="6.36812" gradientUnits="userSpaceOnUse">
<stop stop-color="#00B5C8"/>
<stop offset="1" stop-color="#00C5D9"/>
</linearGradient>
<linearGradient id="paint1_linear_3001_47010" x1="19.1953" y1="14.2583" x2="38.9155" y2="14.2583" gradientUnits="userSpaceOnUse">
<stop stop-color="#007EC2"/>
<stop offset="1" stop-color="#2D96D2"/>
</linearGradient>
<linearGradient id="paint2_linear_3001_47010" x1="16.3729" y1="38.9276" x2="37.7203" y2="26.9704" gradientUnits="userSpaceOnUse">
<stop stop-color="#00B6C8"/>
<stop offset="1" stop-color="#7DDAEB"/>
</linearGradient>
<linearGradient id="paint3_linear_3001_47010" x1="77.9578" y1="-3.213" x2="55.002" y2="26.3863" gradientUnits="userSpaceOnUse">
<stop stop-color="#00B1EB"/>
<stop offset="1" stop-color="#2F83C5"/>
</linearGradient>
<linearGradient id="paint4_linear_3001_47010" x1="54.4054" y1="15.8081" x2="43.4158" y2="9.64327" gradientUnits="userSpaceOnUse">
<stop stop-color="#FEFEFE"/>
<stop offset="1" stop-color="#2F83C5"/>
</linearGradient>
</defs>
</svg>
